Jinko Light.ufo
<glyph name="dollar" format="1">
  <advance width="1210"/>
  <unicode hex="0024"/>
  <outline>
    <contour>
      <point x="581" y="-108" type="line"/>
      <point x="688" y="-108" type="line"/>
      <point x="688" y="-20" type="line"/>
      <point x="969" y="17"/>
      <point x="1164" y="133"/>
      <point x="1164" y="396" type="curve" smooth="yes"/>
      <point x="1164" y="659"/>
      <point x="1023" y="774"/>
      <point x="690" y="879" type="curve"/>
      <point x="690" y="1516" type="line"/>
      <point x="829" y="1513"/>
      <point x="981" y="1449"/>
      <point x="1112" y="1362" type="curve"/>
      <point x="1133" y="1362" type="line"/>
      <point x="1150" y="1511" type="line"/>
      <point x="1013" y="1586"/>
      <point x="868" y="1634"/>
      <point x="688" y="1646" type="curve"/>
      <point x="688" y="1750" type="line"/>
      <point x="581" y="1750" type="line"/>
      <point x="581" y="1644" type="line"/>
      <point x="289" y="1621"/>
      <point x="80" y="1476"/>
      <point x="80" y="1195" type="curve" smooth="yes"/>
      <point x="80" y="964"/>
      <point x="246" y="830"/>
      <point x="578" y="736" type="curve"/>
      <point x="578" y="111" type="line"/>
      <point x="423" y="112"/>
      <point x="218" y="162"/>
      <point x="73" y="319" type="curve"/>
      <point x="48" y="319" type="line"/>
      <point x="24" y="136" type="line"/>
      <point x="180" y="35"/>
      <point x="326" y="-25"/>
      <point x="581" y="-27" type="curve"/>
    </contour>
    <contour>
      <point x="693" y="116" type="curve" smooth="yes"/>
      <point x="690" y="116"/>
      <point x="690" y="116"/>
      <point x="692" y="117" type="curve"/>
      <point x="692" y="709" type="line"/>
      <point x="950" y="628"/>
      <point x="1007" y="528"/>
      <point x="1007" y="390" type="curve" smooth="yes"/>
      <point x="1007" y="286"/>
      <point x="953" y="139"/>
    </contour>
    <contour>
      <point x="575" y="913" type="line"/>
      <point x="326.055435538" y="972.071591567"/>
      <point x="234" y="1078"/>
      <point x="234" y="1213" type="curve" smooth="yes"/>
      <point x="234" y="1340"/>
      <point x="321" y="1491"/>
      <point x="575" y="1508" type="curve"/>
    </contour>
  </outline>
</glyph>
<glyph name="percent" format="1">
  <advance width="2078"/>
  <unicode hex="0025"/>
  <outline>
    <contour>
      <point x="471" y="817" type="curve" smooth="yes"/>
      <point x="335" y="817"/>
      <point x="271" y="902"/>
      <point x="271" y="1117" type="curve" smooth="yes"/>
      <point x="271" y="1350"/>
      <point x="339" y="1430"/>
      <point x="470" y="1430" type="curve" smooth="yes"/>
      <point x="606" y="1430"/>
      <point x="670" y="1350"/>
      <point x="670" y="1132" type="curve" smooth="yes"/>
      <point x="670" y="902"/>
      <point x="601" y="817"/>
    </contour>
    <contour>
      <point x="470" y="719" type="curve" smooth="yes"/>
      <point x="715" y="719"/>
      <point x="795" y="900"/>
      <point x="795" y="1128" type="curve" smooth="yes"/>
      <point x="795" y="1350"/>
      <point x="723" y="1520"/>
      <point x="471" y="1521" type="curve"/>
      <point x="219" y="1518"/>
      <point x="143" y="1342"/>
      <point x="143" y="1117" type="curve" smooth="yes"/>
      <point x="143" y="893"/>
      <point x="219" y="719"/>
    </contour>
    <contour>
      <point x="585" y="0" type="line"/>
      <point x="732" y="0" type="line"/>
      <point x="1508" y="1521" type="line"/>
      <point x="1363" y="1521" type="line"/>
    </contour>
    <contour>
      <point x="1634" y="97" type="curve" smooth="yes"/>
      <point x="1498" y="97"/>
      <point x="1434" y="182"/>
      <point x="1434" y="397" type="curve" smooth="yes"/>
      <point x="1434" y="630"/>
      <point x="1502" y="710"/>
      <point x="1633" y="710" type="curve" smooth="yes"/>
      <point x="1769" y="710"/>
      <point x="1833" y="630"/>
      <point x="1833" y="412" type="curve" smooth="yes"/>
      <point x="1833" y="182"/>
      <point x="1764" y="97"/>
    </contour>
    <contour>
      <point x="1633" y="-1" type="curve" smooth="yes"/>
      <point x="1878" y="-1"/>
      <point x="1958" y="180"/>
      <point x="1958" y="408" type="curve" smooth="yes"/>
      <point x="1958" y="630"/>
      <point x="1886" y="800"/>
      <point x="1634" y="801" type="curve"/>
      <point x="1382" y="798"/>
      <point x="1306" y="622"/>
      <point x="1306" y="397" type="curve" smooth="yes"/>
      <point x="1306" y="173"/>
      <point x="1382" y="-1"/>
    </contour>
  </outline>
</glyph>
<glyph name="ampersand" format="1">
  <advance width="1550"/>
  <unicode hex="0026"/>
  <outline>
    <contour>
      <point x="672" y="-24" type="curve" smooth="yes"/>
      <point x="840" y="-24"/>
      <point x="1002" y="19"/>
      <point x="1142" y="123" type="curve"/>
      <point x="1207" y="61"/>
      <point x="1263" y="0"/>
      <point x="1263" y="0" type="curve"/>
      <point x="1485" y="0" type="line"/>
      <point x="1485" y="0"/>
      <point x="1258" y="229"/>
      <point x="1282" y="208" type="curve"/>
      <point x="1426" y="344"/>
      <point x="1458" y="564"/>
      <point x="1445" y="764" type="curve"/>
      <point x="1311" y="782" type="line"/>
      <point x="1321" y="668"/>
      <point x="1296" y="389"/>
      <point x="1178" y="309" type="curve"/>
      <point x="1077" y="408"/>
      <point x="797" y="684"/>
      <point x="698" y="787" type="curve"/>
      <point x="1070" y="983"/>
      <point x="1102" y="1117"/>
      <point x="1088" y="1272" type="curve" smooth="yes"/>
      <point x="1072" y="1438"/>
      <point x="950" y="1599"/>
      <point x="670" y="1599" type="curve" smooth="yes"/>
      <point x="295" y="1599"/>
      <point x="184" y="1403"/>
      <point x="184" y="1228" type="curve" smooth="yes"/>
      <point x="184" y="1078"/>
      <point x="325" y="953"/>
      <point x="419" y="864" type="curve"/>
      <point x="192" y="778"/>
      <point x="76" y="659"/>
      <point x="76" y="447" type="curve" smooth="yes"/>
      <point x="76" y="167"/>
      <point x="299" y="-24"/>
    </contour>
    <contour>
      <point x="704" y="134" type="curve" smooth="yes"/>
      <point x="345" y="131"/>
      <point x="231" y="277"/>
      <point x="231" y="438" type="curve" smooth="yes"/>
      <point x="231" y="632"/>
      <point x="395" y="694"/>
      <point x="510" y="735" type="curve"/>
      <point x="696" y="546"/>
      <point x="840" y="408"/>
      <point x="1027" y="222" type="curve"/>
      <point x="913" y="155"/>
      <point x="863" y="139"/>
    </contour>
    <contour>
      <point x="564" y="921" type="curve"/>
      <point x="407" y="1095"/>
      <point x="346" y="1140"/>
      <point x="362" y="1257" type="curve" smooth="yes"/>
      <point x="378" y="1356"/>
      <point x="462" y="1449"/>
      <point x="653" y="1449" type="curve" smooth="yes"/>
      <point x="898" y="1449"/>
      <point x="947" y="1351"/>
      <point x="947" y="1241" type="curve" smooth="yes"/>
      <point x="947" y="1125"/>
      <point x="845" y="1007"/>
    </contour>
  </outline>
</glyph>
<glyph name="parenleft" format="1">
  <advance width="818"/>
  <unicode hex="0028"/>
  <outline>
    <contour>
      <point x="557" y="-331" type="curve"/>
      <point x="700" y="-331" type="line"/>
      <point x="694" y="-310"/>
      <point x="705" y="-292"/>
      <point x="702" y="-270" type="curve"/>
      <point x="539" y="-82"/>
      <point x="361" y="211"/>
      <point x="361" y="584" type="curve" smooth="yes"/>
      <point x="361" y="944"/>
      <point x="520" y="1219"/>
      <point x="702" y="1420" type="curve"/>
      <point x="705" y="1441"/>
      <point x="694" y="1461"/>
      <point x="700" y="1480" type="curve"/>
      <point x="557" y="1480" type="line"/>
      <point x="339" y="1232"/>
      <point x="192" y="944"/>
      <point x="192" y="589" type="curve" smooth="yes"/>
      <point x="192" y="186"/>
      <point x="337" y="-83"/>
    </contour>
  </outline>
</glyph>
<glyph name="parenright" format="1">
  <advance width="818"/>
  <unicode hex="0029"/>
  <outline>
    <contour>
      <point x="167" y="-331" type="curve"/>
      <point x="361" y="-331" type="line"/>
      <point x="579" y="-83"/>
      <point x="722" y="207"/>
      <point x="722" y="574" type="curve" smooth="yes"/>
      <point x="722" y="967"/>
      <point x="579" y="1233"/>
      <point x="361" y="1480" type="curve"/>
      <point x="167" y="1480" type="line"/>
      <point x="173" y="1460"/>
      <point x="162" y="1442"/>
      <point x="166" y="1420" type="curve"/>
      <point x="334" y="1230"/>
      <point x="507" y="943"/>
      <point x="507" y="574" type="curve" smooth="yes"/>
      <point x="507" y="211"/>
      <point x="344" y="-72"/>
      <point x="166" y="-270" type="curve"/>
      <point x="162" y="-291"/>
      <point x="173" y="-311"/>
    </contour>
  </outline>
</glyph>
<glyph name="plus" format="1">
  <advance width="1586"/>
  <unicode hex="002B"/>
  <outline>
    <contour>
      <point x="703" y="87" type="line"/>
      <point x="846" y="87" type="line"/>
      <point x="846" y="529" type="line"/>
      <point x="1317" y="529" type="line"/>
      <point x="1317" y="670" type="line"/>
      <point x="846" y="670" type="line"/>
      <point x="846" y="1098" type="line"/>
      <point x="703" y="1098" type="line"/>
      <point x="703" y="670" type="line"/>
      <point x="245" y="670" type="line"/>
      <point x="245" y="529" type="line"/>
      <point x="703" y="529" type="line"/>
    </contour>
  </outline>
</glyph>
<glyph name="period" format="1">
  <advance width="722"/>
  <unicode hex="002E"/>
  <outline>
    <contour>
      <point x="346" y="-2" type="curve" smooth="yes"/>
      <point x="434" y="-2"/>
      <point x="504" y="67"/>
      <point x="504" y="156" type="curve" smooth="yes"/>
      <point x="504" y="244"/>
      <point x="434" y="314"/>
      <point x="346" y="314" type="curve" smooth="yes"/>
      <point x="257" y="314"/>
      <point x="187" y="244"/>
      <point x="187" y="156" type="curve" smooth="yes"/>
      <point x="187" y="67"/>
      <point x="257" y="-2"/>
    </contour>
  </outline>
</glyph>
<glyph name="slash" format="1">
  <advance width="770"/>
  <unicode hex="002F"/>
  <outline>
    <contour>
      <point x="-83.0" y="0.0" type="line"/>
      <point x="94.0" y="0.0" type="line"/>
      <point x="840" y="1575" type="line"/>
      <point x="665" y="1575" type="line"/>
    </contour>
  </outline>
</glyph>
<glyph name="one" format="1">
  <advance width="1061"/>
  <unicode hex="0031"/>
  <outline>
    <contour>
      <point x="186" y="0" type="line"/>
      <point x="961" y="0" type="line"/>
      <point x="961" y="141" type="line"/>
      <point x="670" y="141" type="line"/>
      <point x="670" y="1575" type="line"/>
      <point x="671" y="1575"/>
      <point x="517" y="1575"/>
      <point x="501" y="1575" type="curve"/>
      <point x="467" y="1500"/>
      <point x="411" y="1449"/>
      <point x="185" y="1403" type="curve"/>
      <point x="185" y="1271" type="line"/>
      <point x="481" y="1349" type="line"/>
      <point x="481" y="141" type="line"/>
      <point x="186" y="141" type="line"/>
    </contour>
  </outline>
</glyph>
<glyph name="three" format="1">
  <advance width="1313"/>
  <unicode hex="0033"/>
  <outline>
    <contour>
      <point x="625" y="-24" type="curve" smooth="yes"/>
      <point x="1002" y="-24"/>
      <point x="1220" y="114"/>
      <point x="1220" y="433" type="curve" smooth="yes"/>
      <point x="1220" y="653"/>
      <point x="1040" y="804"/>
      <point x="896" y="852" type="curve"/>
      <point x="1042" y="902"/>
      <point x="1163" y="1000"/>
      <point x="1163" y="1208" type="curve" smooth="yes"/>
      <point x="1163" y="1403"/>
      <point x="1005" y="1600"/>
      <point x="632" y="1600" type="curve" smooth="yes"/>
      <point x="441" y="1600"/>
      <point x="265" y="1562"/>
      <point x="162" y="1490" type="curve"/>
      <point x="162" y="1366" type="line"/>
      <point x="214" y="1366" type="line" smooth="yes"/>
      <point x="214" y="1366"/>
      <point x="321" y="1459"/>
      <point x="618" y="1459" type="curve" smooth="yes"/>
      <point x="898" y="1459"/>
      <point x="977" y="1344"/>
      <point x="977" y="1184" type="curve" smooth="yes"/>
      <point x="977" y="1041"/>
      <point x="880" y="907"/>
      <point x="584" y="907" type="curve" smooth="yes"/>
      <point x="430" y="907" type="line"/>
      <point x="430" y="779" type="line"/>
      <point x="597" y="779" type="line" smooth="yes"/>
      <point x="895" y="779"/>
      <point x="1031" y="632"/>
      <point x="1031" y="421" type="curve" smooth="yes"/>
      <point x="1031" y="184"/>
      <point x="846" y="118"/>
      <point x="637" y="118" type="curve" smooth="yes"/>
      <point x="449" y="118"/>
      <point x="302" y="161"/>
      <point x="207" y="228" type="curve"/>
      <point x="162" y="228" type="line"/>
      <point x="162" y="92" type="line"/>
      <point x="209" y="58"/>
      <point x="389" y="-24"/>
    </contour>
  </outline>
</glyph>
<glyph name="four" format="1">
  <advance width="1308"/>
  <unicode hex="0034"/>
  <outline>
    <contour>
      <point x="1010" y="0" type="line"/>
      <point x="1010" y="261" type="line"/>
      <point x="1137" y="261" type="line"/>
      <point x="1137" y="402" type="line"/>
      <point x="1010" y="402" type="line"/>
      <point x="1010" y="1575" type="line"/>
      <point x="751" y="1575" type="line"/>
      <point x="181" y="412" type="line"/>
      <point x="181" y="261" type="line"/>
      <point x="821" y="261" type="line"/>
      <point x="821" y="0" type="line"/>
    </contour>
    <contour>
      <point x="354" y="402" type="line"/>
      <point x="821" y="1384" type="line"/>
      <point x="821" y="402" type="line"/>
    </contour>
  </outline>
</glyph>
<glyph name="five" format="1">
  <advance width="1366"/>
  <unicode hex="0035"/>
  <outline>
    <contour>
      <point x="665" y="-24" type="curve" smooth="yes"/>
      <point x="1020" y="-24"/>
      <point x="1228" y="135"/>
      <point x="1228" y="446" type="curve" smooth="yes"/>
      <point x="1228" y="772"/>
      <point x="959" y="943"/>
      <point x="526" y="965" type="curve" smooth="yes"/>
      <point x="493" y="967"/>
      <point x="396" y="973"/>
      <point x="396" y="974" type="curve"/>
      <point x="396" y="1434" type="line"/>
      <point x="1086" y="1434" type="line"/>
      <point x="1086" y="1575" type="line"/>
      <point x="230" y="1575" type="line"/>
      <point x="230" y="848" type="line"/>
      <point x="230" y="848"/>
      <point x="417" y="832"/>
      <point x="442" y="830" type="curve" smooth="yes"/>
      <point x="960" y="791"/>
      <point x="1041" y="621"/>
      <point x="1041" y="423" type="curve" smooth="yes"/>
      <point x="1041" y="267"/>
      <point x="946" y="117"/>
      <point x="645" y="117" type="curve" smooth="yes"/>
      <point x="336.272727273" y="117.0"/>
      <point x="251" y="226"/>
      <point x="240" y="226" type="curve"/>
      <point x="188" y="226" type="line"/>
      <point x="188" y="82" type="line"/>
      <point x="293" y="23"/>
      <point x="447" y="-24"/>
    </contour>
  </outline>
</glyph>
<glyph name="six" format="1">
  <advance width="1318"/>
  <unicode hex="0036"/>
  <outline>
    <contour>
      <point x="672" y="-24" type="curve" smooth="yes"/>
      <point x="981" y="-24"/>
      <point x="1198" y="174"/>
      <point x="1198" y="481" type="curve" smooth="yes"/>
      <point x="1198" y="779"/>
      <point x="955" y="945"/>
      <point x="708" y="945" type="curve" smooth="yes"/>
      <point x="615" y="945"/>
      <point x="399" y="909"/>
      <point x="319" y="749" type="curve"/>
      <point x="378" y="1094"/>
      <point x="599" y="1439"/>
      <point x="974" y="1439" type="curve"/>
      <point x="974" y="1439"/>
      <point x="944.0" y="1575.0"/>
      <point x="939" y="1575" type="curve" smooth="yes"/>
      <point x="417" y="1575"/>
      <point x="132" y="1046"/>
      <point x="132" y="569" type="curve" smooth="yes"/>
      <point x="132.0" y="198.693433404"/>
      <point x="354" y="-24"/>
    </contour>
    <contour>
      <point x="654" y="117" type="curve" smooth="yes"/>
      <point x="445" y="117"/>
      <point x="330" y="289"/>
      <point x="330" y="448" type="curve" smooth="yes"/>
      <point x="330" y="638"/>
      <point x="430" y="804"/>
      <point x="689" y="804" type="curve" smooth="yes"/>
      <point x="909" y="804"/>
      <point x="1014" y="637"/>
      <point x="1014" y="483" type="curve" smooth="yes"/>
      <point x="1014" y="291"/>
      <point x="930" y="117"/>
    </contour>
  </outline>
</glyph>
<glyph name="seven" format="1">
  <advance width="1211"/>
  <unicode hex="0037"/>
  <outline>
    <contour>
      <point x="330" y="0" type="line"/>
      <point x="515" y="0" type="line"/>
      <point x="1085" y="1440" type="line"/>
      <point x="1085" y="1575" type="line"/>
      <point x="177" y="1575" type="line"/>
      <point x="177" y="1226" type="line"/>
      <point x="366" y="1226" type="line"/>
      <point x="366" y="1434" type="line"/>
      <point x="897" y="1434" type="line"/>
    </contour>
  </outline>
</glyph>
<glyph name="eight" format="1">
  <advance width="1392"/>
  <unicode hex="0038"/>
  <outline>
    <contour>
      <point x="695" y="-24" type="curve" smooth="yes"/>
      <point x="1048" y="-24"/>
      <point x="1260" y="173"/>
      <point x="1260" y="447" type="curve" smooth="yes"/>
      <point x="1260" y="622"/>
      <point x="1095" y="747"/>
      <point x="923" y="831" type="curve"/>
      <point x="1143" y="959"/>
      <point x="1217" y="1114"/>
      <point x="1219" y="1238" type="curve"/>
      <point x="1227" y="1440"/>
      <point x="1028" y="1596"/>
      <point x="698" y="1596" type="curve" smooth="yes"/>
      <point x="391" y="1596"/>
      <point x="177" y="1443"/>
      <point x="177" y="1246" type="curve" smooth="yes"/>
      <point x="177" y="1110"/>
      <point x="263" y="985"/>
      <point x="534" y="846" type="curve"/>
      <point x="362" y="759"/>
      <point x="131" y="631"/>
      <point x="131" y="392" type="curve" smooth="yes"/>
      <point x="131" y="190"/>
      <point x="343" y="-24"/>
    </contour>
    <contour>
      <point x="705" y="122" type="curve" smooth="yes"/>
      <point x="434" y="122"/>
      <point x="311" y="242"/>
      <point x="311" y="416" type="curve" smooth="yes"/>
      <point x="311" y="614"/>
      <point x="562" y="734"/>
      <point x="641" y="776" type="curve"/>
      <point x="932" y="667"/>
      <point x="1067" y="542"/>
      <point x="1067" y="403" type="curve" smooth="yes"/>
      <point x="1067" y="288"/>
      <point x="996" y="122"/>
    </contour>
    <contour>
      <point x="817" y="887" type="curve"/>
      <point x="646" y="948"/>
      <point x="369" y="1110"/>
      <point x="369" y="1241" type="curve" smooth="yes"/>
      <point x="369" y="1444"/>
      <point x="618" y="1455"/>
      <point x="712" y="1455" type="curve" smooth="yes"/>
      <point x="896" y="1455"/>
      <point x="1049" y="1383"/>
      <point x="1049" y="1244" type="curve" smooth="yes"/>
      <point x="1049" y="1048"/>
      <point x="864" y="928"/>
    </contour>
  </outline>
</glyph>
<glyph name="colon" format="1">
  <advance width="634"/>
  <unicode hex="003A"/>
  <outline>
    <contour>
      <point x="317" y="0" type="curve" smooth="yes"/>
      <point x="406" y="0"/>
      <point x="477" y="72"/>
      <point x="477" y="160" type="curve" smooth="yes"/>
      <point x="477" y="249"/>
      <point x="406" y="321"/>
      <point x="317" y="321" type="curve" smooth="yes"/>
      <point x="228" y="321"/>
      <point x="157" y="249"/>
      <point x="157" y="160" type="curve" smooth="yes"/>
      <point x="157" y="72"/>
      <point x="228" y="0"/>
    </contour>
    <contour>
      <point x="317" y="777" type="curve" smooth="yes"/>
      <point x="406" y="777"/>
      <point x="477" y="849"/>
      <point x="477" y="938" type="curve" smooth="yes"/>
      <point x="477" y="1027"/>
      <point x="406" y="1098"/>
      <point x="317" y="1098" type="curve" smooth="yes"/>
      <point x="228" y="1098"/>
      <point x="157" y="1027"/>
      <point x="157" y="938" type="curve" smooth="yes"/>
      <point x="157" y="849"/>
      <point x="228" y="777"/>
    </contour>
  </outline>
</glyph>
<glyph name="less" format="1">
  <advance width="1587"/>
  <unicode hex="003C"/>
  <outline>
    <contour>
      <point x="1332" y="-15" type="line"/>
      <point x="1332" y="159" type="line"/>
      <point x="351" y="605" type="line"/>
      <point x="1332" y="1048" type="line"/>
      <point x="1332" y="1232" type="line"/>
      <point x="161" y="679" type="line"/>
      <point x="161" y="539" type="line"/>
    </contour>
  </outline>
</glyph>
<glyph name="question" format="1">
  <advance width="1117"/>
  <unicode hex="003F"/>
  <outline>
    <contour>
      <point x="382" y="529" type="curve"/>
      <point x="466" y="529" type="line"/>
      <point x="668" y="730"/>
      <point x="955" y="962"/>
      <point x="955" y="1224" type="curve" smooth="yes"/>
      <point x="955" y="1423"/>
      <point x="862" y="1599"/>
      <point x="571" y="1599" type="curve" smooth="yes"/>
      <point x="380" y="1599"/>
      <point x="214" y="1511"/>
      <point x="150" y="1473" type="curve"/>
      <point x="150" y="1318" type="line"/>
      <point x="261" y="1400"/>
      <point x="374" y="1455"/>
      <point x="513" y="1455" type="curve" smooth="yes"/>
      <point x="719" y="1455"/>
      <point x="791" y="1327"/>
      <point x="791" y="1194" type="curve" smooth="yes"/>
      <point x="791" y="1050"/>
      <point x="530" y="733"/>
    </contour>
    <contour>
      <point x="428" y="-2" type="curve" smooth="yes"/>
      <point x="513" y="-2"/>
      <point x="581" y="66"/>
      <point x="581" y="151" type="curve" smooth="yes"/>
      <point x="581" y="236"/>
      <point x="513" y="304"/>
      <point x="428" y="304" type="curve" smooth="yes"/>
      <point x="343" y="304"/>
      <point x="275" y="236"/>
      <point x="275" y="151" type="curve" smooth="yes"/>
      <point x="275" y="66"/>
      <point x="343" y="-2"/>
    </contour>
  </outline>
</glyph>
<glyph name="B" format="1">
  <advance width="1332"/>
  <unicode hex="0042"/>
  <outline>
    <contour>
      <point x="155" y="0" type="line"/>
      <point x="668" y="0" type="line" smooth="yes"/>
      <point x="1028" y="0"/>
      <point x="1286" y="137"/>
      <point x="1286" y="480" type="curve" smooth="yes"/>
      <point x="1286" y="674"/>
      <point x="1139" y="838"/>
      <point x="927" y="865" type="curve"/>
      <point x="927" y="872" type="line"/>
      <point x="1091" y="915"/>
      <point x="1179" y="1045"/>
      <point x="1179" y="1174" type="curve" smooth="yes"/>
      <point x="1179" y="1476"/>
      <point x="967" y="1575"/>
      <point x="602" y="1575" type="curve" smooth="yes"/>
      <point x="155" y="1575" type="line"/>
    </contour>
    <contour>
      <point x="344" y="141" type="line"/>
      <point x="344" y="778" type="line"/>
      <point x="721" y="778" type="line" smooth="yes"/>
      <point x="918" y="778"/>
      <point x="1097" y="656"/>
      <point x="1097" y="480" type="curve" smooth="yes"/>
      <point x="1097" y="348"/>
      <point x="1066" y="141"/>
      <point x="721" y="141" type="curve" smooth="yes"/>
    </contour>
    <contour>
      <point x="344" y="910" type="line"/>
      <point x="344" y="1434" type="line"/>
      <point x="656" y="1434" type="line" smooth="yes"/>
      <point x="877" y="1434"/>
      <point x="976" y="1323"/>
      <point x="976" y="1180" type="curve" smooth="yes"/>
      <point x="976" y="1028"/>
      <point x="893" y="910"/>
      <point x="658" y="910" type="curve" smooth="yes"/>
    </contour>
  </outline>
</glyph>
<glyph name="C" format="1">
  <advance width="1335"/>
  <unicode hex="0043"/>
  <outline>
    <contour>
      <point x="814" y="-24" type="curve" smooth="yes"/>
      <point x="1025" y="-24"/>
      <point x="1180" y="42"/>
      <point x="1262" y="112" type="curve"/>
      <point x="1227" y="245" type="line"/>
      <point x="1227" y="245"/>
      <point x="1072" y="122"/>
      <point x="820" y="122" type="curve" smooth="yes"/>
      <point x="510" y="122"/>
      <point x="317" y="299"/>
      <point x="317" y="791" type="curve" smooth="yes"/>
      <point x="317" y="1325"/>
      <point x="534" y="1455"/>
      <point x="819" y="1455" type="curve" smooth="yes"/>
      <point x="1089" y="1455"/>
      <point x="1220" y="1333"/>
      <point x="1220" y="1333" type="curve"/>
      <point x="1261" y="1459" type="line"/>
      <point x="1168" y="1535"/>
      <point x="1029" y="1601"/>
      <point x="822" y="1601" type="curve" smooth="yes"/>
      <point x="402" y="1601"/>
      <point x="133" y="1318"/>
      <point x="133" y="794" type="curve" smooth="yes"/>
      <point x="133" y="274"/>
      <point x="327" y="-24"/>
    </contour>
    <contour>
      <point x="668" y="1575" type="move" name="top"/>
    </contour>
    <contour>
      <point x="668" y="0" type="move" name="bottom"/>
    </contour>
  </outline>
</glyph>
<glyph name="J" format="1">
  <advance width="1053"/>
  <unicode hex="004A"/>
  <outline>
    <contour>
      <point x="422" y="-20" type="curve" smooth="yes"/>
      <point x="705" y="-20"/>
      <point x="815" y="141"/>
      <point x="815" y="458" type="curve" smooth="yes"/>
      <point x="815" y="1575" type="line"/>
      <point x="374" y="1575" type="line"/>
      <point x="374" y="1434" type="line"/>
      <point x="626" y="1434" type="line"/>
      <point x="626" y="457" type="line" smooth="yes"/>
      <point x="626" y="199"/>
      <point x="543" y="122"/>
      <point x="394" y="122" type="curve" smooth="yes"/>
      <point x="281" y="122"/>
      <point x="155" y="192"/>
      <point x="155" y="192" type="curve"/>
      <point x="122" y="57" type="line"/>
      <point x="122" y="57"/>
      <point x="260" y="-20"/>
    </contour>
    <contour>
      <point x="527" y="1575" type="move" name="top"/>
    </contour>
  </outline>
</glyph>
<glyph name="K" format="1">
  <advance width="1400"/>
  <unicode hex="004B"/>
  <outline>
    <contour>
      <point x="260" y="0" type="line"/>
      <point x="449" y="0" type="line"/>
      <point x="449" y="521" type="line"/>
      <point x="729" y="820" type="line"/>
      <point x="800" y="702" type="line" smooth="yes"/>
      <point x="896" y="539"/>
      <point x="1219" y="0"/>
      <point x="1219" y="0" type="curve"/>
      <point x="1436" y="0" type="line"/>
      <point x="861" y="951" type="line"/>
      <point x="1407" y="1575" type="line"/>
      <point x="1167" y="1575" type="line"/>
      <point x="1219" y="1649"/>
      <point x="777" y="1127"/>
      <point x="755" y="1106" type="curve"/>
      <point x="450" y="760" type="line"/>
      <point x="449" y="760" type="line"/>
      <point x="449" y="1575" type="line"/>
      <point x="260" y="1575" type="line"/>
    </contour>
    <contour>
      <point x="700" y="1575" type="move" name="top"/>
    </contour>
    <contour>
      <point x="700" y="0" type="move" name="bottom"/>
    </contour>
  </outline>
</glyph>
<glyph name="S" format="1">
  <advance width="1367"/>
  <unicode hex="0053"/>
  <outline>
    <contour>
      <point x="582" y="-24" type="curve" smooth="yes"/>
      <point x="904" y="-24"/>
      <point x="1158" y="121"/>
      <point x="1158" y="410" type="curve" smooth="yes"/>
      <point x="1158" y="709"/>
      <point x="980" y="798"/>
      <point x="596" y="884" type="curve" smooth="yes"/>
      <point x="284" y="954"/>
      <point x="253" y="1030"/>
      <point x="253" y="1166" type="curve" smooth="yes"/>
      <point x="253" y="1305"/>
      <point x="350" y="1453"/>
      <point x="638" y="1453" type="curve" smooth="yes"/>
      <point x="771" y="1453"/>
      <point x="940" y="1425"/>
      <point x="1070" y="1344" type="curve"/>
      <point x="1086" y="1344" type="line"/>
      <point x="1102" y="1484" type="line"/>
      <point x="973" y="1560"/>
      <point x="800" y="1599"/>
      <point x="626" y="1599" type="curve" smooth="yes"/>
      <point x="315" y="1599"/>
      <point x="73" y="1436"/>
      <point x="73" y="1171" type="curve" smooth="yes"/>
      <point x="73.0" y="910.117351866"/>
      <point x="203" y="809"/>
      <point x="532" y="738" type="curve" smooth="yes"/>
      <point x="924" y="654"/>
      <point x="978" y="580"/>
      <point x="977" y="392" type="curve" smooth="yes"/>
      <point x="976" y="258"/>
      <point x="887" y="123"/>
      <point x="578" y="123" type="curve" smooth="yes"/>
      <point x="434" y="123"/>
      <point x="222" y="170"/>
      <point x="97" y="278" type="curve"/>
      <point x="67" y="278" type="line"/>
      <point x="42" y="134" type="line"/>
      <point x="179" y="39"/>
      <point x="364" y="-24"/>
    </contour>
    <contour>
      <point x="684" y="1575" type="move" name="top"/>
    </contour>
    <contour>
      <point x="684" y="0" type="move" name="bottom"/>
    </contour>
  </outline>
</glyph>
<glyph name="T" format="1">
  <advance width="1188"/>
  <unicode hex="0054"/>
  <outline>
    <contour>
      <point x="501" y="0" type="line"/>
      <point x="690" y="0" type="line"/>
      <point x="690" y="1434" type="line"/>
      <point x="1160" y="1434" type="line"/>
      <point x="1160" y="1575" type="line"/>
      <point x="28" y="1575" type="line"/>
      <point x="28" y="1434" type="line"/>
      <point x="501" y="1434" type="line"/>
    </contour>
    <contour>
      <point x="594" y="1575" type="move" name="top"/>
    </contour>
    <contour>
      <point x="594" y="788" type="move" name="center"/>
    </contour>
    <contour>
      <point x="594" y="0" type="move" name="bottom"/>
    </contour>
  </outline>
</glyph>
<glyph name="W" format="1">
  <advance width="2016"/>
  <unicode hex="0057"/>
  <outline>
    <contour>
      <point x="403" y="0" type="line"/>
      <point x="582" y="0" type="line"/>
      <point x="1020" y="1450" type="line"/>
      <point x="1421" y="0" type="line"/>
      <point x="1602" y="0" type="line"/>
      <point x="2039" y="1575" type="line"/>
      <point x="1860" y="1575" type="line"/>
      <point x="1616" y="671" type="line" smooth="yes"/>
      <point x="1523" y="320" type="line"/>
      <point x="1416" y="687" type="line"/>
      <point x="1154" y="1575" type="line"/>
      <point x="880" y="1575" type="line"/>
      <point x="600" y="647" type="line"/>
      <point x="502" y="318" type="line"/>
      <point x="498" y="318" type="line"/>
      <point x="404" y="673" type="line"/>
      <point x="161" y="1575" type="line"/>
      <point x="-23" y="1575" type="line"/>
    </contour>
  </outline>
</glyph>
<glyph name="X" format="1">
  <advance width="1480"/>
  <unicode hex="0058"/>
  <outline>
    <contour>
      <point x="4" y="0" type="line"/>
      <point x="219" y="0" type="line"/>
      <point x="631" y="535" type="line" smooth="yes"/>
      <point x="731" y="660" type="line"/>
      <point x="830" y="526" type="line"/>
      <point x="1222" y="0" type="line"/>
      <point x="1423" y="0" type="line"/>
      <point x="833" y="767" type="line"/>
      <point x="1462" y="1575" type="line"/>
      <point x="1242" y="1575" type="line"/>
      <point x="799" y="986" type="line"/>
      <point x="731" y="901" type="line"/>
      <point x="664" y="984" type="line" smooth="yes"/>
      <point x="222" y="1575" type="line"/>
      <point x="37" y="1575" type="line"/>
      <point x="625" y="789" type="line"/>
    </contour>
  </outline>
</glyph>
<glyph name="bracketleft" format="1">
  <advance width="818"/>
  <unicode hex="005B"/>
  <outline>
    <contour>
      <point x="252" y="-220" type="line"/>
      <point x="720" y="-220" type="line"/>
      <point x="720" y="-79" type="line"/>
      <point x="441" y="-79" type="line"/>
      <point x="441" y="1434" type="line"/>
      <point x="720" y="1434" type="line"/>
      <point x="720" y="1575" type="line"/>
      <point x="252" y="1575" type="line"/>
    </contour>
  </outline>
</glyph>
<glyph name="backslash" format="1">
  <advance width="770"/>
  <unicode hex="005C"/>
  <outline>
    <contour>
      <point x="-83" y="0" type="line"/>
      <point x="94" y="0" type="line"/>
      <point x="840" y="1521" type="line"/>
      <point x="665" y="1521" type="line"/>
    </contour>
  </outline>
</glyph>
<glyph name="grave" format="1">
  <advance width="895"/>
  <unicode hex="0060"/>
  <outline>
    <contour>
      <point x="234" y="1194" type="line"/>
      <point x="360" y="1194" type="line"/>
      <point x="138" y="1559" type="line"/>
      <point x="-19" y="1559" type="line"/>
    </contour>
    <contour>
      <point x="171" y="1098" type="move" name="_top"/>
    </contour>
  </outline>
</glyph>
<glyph name="b" format="1">
  <advance width="1216"/>
  <unicode hex="0062"/>
  <outline>
    <contour>
      <point x="618" y="-32" type="curve" smooth="yes"/>
      <point x="912" y="-32"/>
      <point x="1120" y="183"/>
      <point x="1120" y="566" type="curve" smooth="yes"/>
      <point x="1120" y="946"/>
      <point x="912" y="1120"/>
      <point x="661" y="1120" type="curve" smooth="yes"/>
      <point x="547" y="1120"/>
      <point x="372" y="1054"/>
      <point x="312" y="942" type="curve"/>
      <point x="312" y="1521" type="line"/>
      <point x="123" y="1521" type="line"/>
      <point x="123" y="0" type="line"/>
      <point x="312" y="0" type="line"/>
      <point x="312" y="88" type="line"/>
      <point x="351" y="23"/>
      <point x="491" y="-32"/>
    </contour>
    <contour>
      <point x="605" y="119" type="curve" smooth="yes"/>
      <point x="498" y="119"/>
      <point x="393" y="158"/>
      <point x="312" y="209" type="curve"/>
      <point x="312" y="808" type="line"/>
      <point x="335" y="866"/>
      <point x="479" y="965"/>
      <point x="622" y="965" type="curve" smooth="yes"/>
      <point x="806" y="965"/>
      <point x="931" y="827"/>
      <point x="931" y="550" type="curve" smooth="yes"/>
      <point x="931" y="302"/>
      <point x="824" y="119"/>
    </contour>
  </outline>
</glyph>
<glyph name="c" format="1">
  <advance width="1078"/>
  <unicode hex="0063"/>
  <outline>
    <contour>
      <point x="660" y="-22" type="curve" smooth="yes"/>
      <point x="811" y="-22"/>
      <point x="926" y="18"/>
      <point x="1008" y="71" type="curve"/>
      <point x="971" y="231" type="line"/>
      <point x="929.024117092" y="202.33354338"/>
      <point x="786.039711377" y="131.0"/>
      <point x="657" y="131" type="curve" smooth="yes"/>
      <point x="411" y="131"/>
      <point x="285" y="290"/>
      <point x="285" y="544" type="curve" smooth="yes"/>
      <point x="285" y="827"/>
      <point x="427" y="970"/>
      <point x="650" y="970" type="curve" smooth="yes"/>
      <point x="769" y="970"/>
      <point x="898" y="924"/>
      <point x="979" y="861" type="curve"/>
      <point x="1014" y="1024" type="line"/>
      <point x="874" y="1103"/>
      <point x="772" y="1124"/>
      <point x="642" y="1124" type="curve" smooth="yes"/>
      <point x="349" y="1124"/>
      <point x="96" y="958"/>
      <point x="96" y="545" type="curve" smooth="yes"/>
      <point x="96" y="153"/>
      <point x="335" y="-22"/>
    </contour>
    <contour>
      <point x="532" y="1098" type="move" name="top"/>
    </contour>
    <contour>
      <point x="532" y="0" type="move" name="bottom"/>
    </contour>
  </outline>
</glyph>
<glyph name="g" format="1">
  <advance width="1216"/>
  <unicode hex="0067"/>
  <outline>
    <contour>
      <point x="642" y="-404" type="curve" smooth="yes"/>
      <point x="947.11901639" y="-404.0"/>
      <point x="1093.0" y="-263.547402506"/>
      <point x="1093" y="136" type="curve"/>
      <point x="1093" y="1098" type="line"/>
      <point x="904" y="1098" type="line"/>
      <point x="904" y="938" type="line"/>
      <point x="836" y="1048"/>
      <point x="705" y="1121"/>
      <point x="574" y="1121" type="curve" smooth="yes"/>
      <point x="284" y="1121"/>
      <point x="96" y="912"/>
      <point x="96" y="543" type="curve" smooth="yes"/>
      <point x="96" y="169"/>
      <point x="308" y="-32"/>
      <point x="576" y="-32" type="curve" smooth="yes"/>
      <point x="707" y="-32"/>
      <point x="824" y="13"/>
      <point x="904" y="114" type="curve"/>
      <point x="904" y="108" type="line"/>
      <point x="904" y="-87"/>
      <point x="848" y="-245"/>
      <point x="633" y="-245" type="curve" smooth="yes"/>
      <point x="457" y="-245"/>
      <point x="316" y="-187"/>
      <point x="272" y="-157" type="curve"/>
      <point x="234" y="-312" type="line"/>
      <point x="333" y="-363"/>
      <point x="496" y="-404"/>
    </contour>
    <contour>
      <point x="595" y="119" type="curve" smooth="yes"/>
      <point x="399" y="119"/>
      <point x="285" y="274"/>
      <point x="285" y="544" type="curve" smooth="yes"/>
      <point x="285" y="771"/>
      <point x="349" y="971"/>
      <point x="595" y="971" type="curve" smooth="yes"/>
      <point x="683" y="971"/>
      <point x="827" y="937"/>
      <point x="904" y="834" type="curve"/>
      <point x="904" y="246" type="line"/>
      <point x="818" y="137"/>
      <point x="650" y="119"/>
    </contour>
  </outline>
</glyph>
<glyph name="h" format="1">
  <advance width="1206.0"/>
  <unicode hex="0068"/>
  <outline>
    <contour>
      <point x="123.0" y="0.0" type="line"/>
      <point x="312.0" y="0.0" type="line"/>
      <point x="312.0" y="794.0" type="line" smooth="yes"/>
      <point x="312.0" y="839.699314192"/>
      <point x="467.0" y="970.0"/>
      <point x="663.0" y="970.0" type="curve" smooth="yes"/>
      <point x="773.0" y="970.0"/>
      <point x="902.0" y="928.0"/>
      <point x="902.0" y="752.0" type="curve" smooth="yes"/>
      <point x="902.0" y="0.0" type="line"/>
      <point x="1091.0" y="0.0" type="line"/>
      <point x="1091.0" y="735.0" type="line" smooth="yes"/>
      <point x="1091.0" y="995.0"/>
      <point x="932.0" y="1126.0"/>
      <point x="724.0" y="1126.0" type="curve" smooth="yes"/>
      <point x="571.0" y="1126.0"/>
      <point x="402.0" y="1057.0"/>
      <point x="312.0" y="917.0" type="curve"/>
      <point x="312" y="1522" type="line"/>
      <point x="123" y="1522" type="line"/>
    </contour>
    <contour>
      <point x="583.0" y="1098.0" type="move" name="top"/>
    </contour>
    <contour>
      <point x="583.0" y="0.0" type="move" name="bottom"/>
    </contour>
  </outline>
</glyph>
<glyph name="i" format="1">
  <advance width="531"/>
  <unicode hex="0069"/>
  <outline>
    <contour>
      <point x="164" y="0" type="line"/>
      <point x="353" y="0" type="line"/>
      <point x="353" y="1098" type="line"/>
      <point x="164" y="1098" type="line"/>
    </contour>
    <contour>
      <point x="266" y="1265" type="curve" smooth="yes"/>
      <point x="355" y="1265"/>
      <point x="399" y="1329"/>
      <point x="399" y="1392" type="curve" smooth="yes"/>
      <point x="399" y="1456"/>
      <point x="353" y="1520"/>
      <point x="266" y="1520" type="curve" smooth="yes"/>
      <point x="176" y="1520"/>
      <point x="132" y="1457"/>
      <point x="132" y="1392" type="curve" smooth="yes"/>
      <point x="132" y="1329"/>
      <point x="177" y="1265"/>
    </contour>
  </outline>
</glyph>
<glyph name="m" format="1">
  <advance width="1754"/>
  <unicode hex="006D"/>
  <outline>
    <contour>
      <point x="123" y="0" type="line"/>
      <point x="312.0" y="0.0" type="line"/>
      <point x="312.0" y="805.0" type="line" smooth="yes"/>
      <point x="312.0" y="873.0"/>
      <point x="457" y="970"/>
      <point x="593" y="970" type="curve" smooth="yes"/>
      <point x="705" y="970"/>
      <point x="794" y="902"/>
      <point x="794" y="730" type="curve" smooth="yes"/>
      <point x="794" y="0" type="line"/>
      <point x="983" y="0" type="line"/>
      <point x="983" y="811" type="line" smooth="yes"/>
      <point x="983" y="852"/>
      <point x="1099" y="970"/>
      <point x="1247" y="970" type="curve" smooth="yes"/>
      <point x="1378" y="970"/>
      <point x="1450" y="900"/>
      <point x="1450" y="703" type="curve" smooth="yes"/>
      <point x="1450" y="0" type="line"/>
      <point x="1639" y="0" type="line"/>
      <point x="1639" y="722"/>
      <point x="1639" y="723"/>
      <point x="1639" y="724" type="curve" smooth="yes"/>
      <point x="1639" y="1002"/>
      <point x="1502" y="1126"/>
      <point x="1313" y="1126" type="curve" smooth="yes"/>
      <point x="1185" y="1126"/>
      <point x="1053" y="1067"/>
      <point x="958" y="939" type="curve"/>
      <point x="908" y="1082"/>
      <point x="793" y="1126"/>
      <point x="671" y="1126" type="curve" smooth="yes"/>
      <point x="538" y="1126"/>
      <point x="392" y="1067"/>
      <point x="312" y="944" type="curve"/>
      <point x="312.0" y="1098.0" type="line"/>
      <point x="123" y="1098" type="line"/>
    </contour>
  </outline>
</glyph>
<glyph name="o" format="1">
  <advance width="1257"/>
  <unicode hex="006F"/>
  <outline>
    <contour>
      <point x="629" y="131" type="curve" smooth="yes"/>
      <point x="424" y="131"/>
      <point x="285" y="285"/>
      <point x="285" y="552" type="curve" smooth="yes"/>
      <point x="285" y="821"/>
      <point x="431" y="970"/>
      <point x="626" y="970" type="curve" smooth="yes"/>
      <point x="840" y="970"/>
      <point x="972" y="828"/>
      <point x="972" y="551" type="curve" smooth="yes"/>
      <point x="972" y="298"/>
      <point x="858" y="131"/>
    </contour>
    <contour>
      <point x="626" y="-22" type="curve" smooth="yes"/>
      <point x="899" y="-22"/>
      <point x="1161" y="140"/>
      <point x="1161" y="553" type="curve" smooth="yes"/>
      <point x="1161" y="968"/>
      <point x="898" y="1126"/>
      <point x="626" y="1126" type="curve" smooth="yes"/>
      <point x="370" y="1126"/>
      <point x="96" y="970"/>
      <point x="96" y="554" type="curve" smooth="yes"/>
      <point x="96" y="139"/>
      <point x="358" y="-22"/>
    </contour>
    <contour>
      <point x="634" y="1098" type="move" name="top"/>
    </contour>
  </outline>
</glyph>
<glyph name="p" format="1">
  <advance width="1234"/>
  <unicode hex="0070"/>
  <outline>
    <contour>
      <point x="141" y="-413" type="line"/>
      <point x="330" y="-413" type="line"/>
      <point x="330" y="114" type="line"/>
      <point x="410.462412762" y="13.4219840477"/>
      <point x="540" y="-22"/>
      <point x="671" y="-22" type="curve" smooth="yes"/>
      <point x="939" y="-22"/>
      <point x="1138" y="169"/>
      <point x="1138" y="543" type="curve" smooth="yes"/>
      <point x="1138" y="912"/>
      <point x="950" y="1121"/>
      <point x="660" y="1121" type="curve" smooth="yes"/>
      <point x="529" y="1121"/>
      <point x="398" y="1049"/>
      <point x="330" y="939" type="curve"/>
      <point x="330" y="1098" type="line"/>
      <point x="141" y="1098" type="line"/>
    </contour>
    <contour>
      <point x="639" y="119" type="curve" smooth="yes"/>
      <point x="584" y="119"/>
      <point x="416" y="137"/>
      <point x="330" y="246" type="curve"/>
      <point x="330" y="834" type="line"/>
      <point x="407" y="937"/>
      <point x="562" y="971"/>
      <point x="650" y="971" type="curve" smooth="yes"/>
      <point x="896" y="971"/>
      <point x="949" y="771"/>
      <point x="949" y="544" type="curve" smooth="yes"/>
      <point x="949" y="274"/>
      <point x="835" y="119"/>
    </contour>
  </outline>
</glyph>
<glyph name="s" format="1">
  <advance width="1026"/>
  <unicode hex="0073"/>
  <outline>
    <contour>
      <point x="519" y="-22" type="curve" smooth="yes"/>
      <point x="837" y="-18"/>
      <point x="964" y="98"/>
      <point x="964" y="304" type="curve" smooth="yes"/>
      <point x="964" y="512"/>
      <point x="862" y="589"/>
      <point x="602" y="643" type="curve"/>
      <point x="346" y="695"/>
      <point x="280" y="721"/>
      <point x="280" y="824" type="curve" smooth="yes"/>
      <point x="280" y="951"/>
      <point x="393" y="970"/>
      <point x="500" y="970" type="curve" smooth="yes"/>
      <point x="652" y="970"/>
      <point x="837" y="905"/>
      <point x="872" y="890" type="curve"/>
      <point x="884" y="1043" type="line"/>
      <point x="789" y="1087"/>
      <point x="663" y="1124"/>
      <point x="483" y="1124" type="curve" smooth="yes"/>
      <point x="213" y="1124"/>
      <point x="95" y="1011"/>
      <point x="95" y="816" type="curve" smooth="yes"/>
      <point x="95" y="601"/>
      <point x="305" y="543"/>
      <point x="524" y="497" type="curve" smooth="yes"/>
      <point x="760" y="447"/>
      <point x="786" y="396"/>
      <point x="786" y="307" type="curve" smooth="yes"/>
      <point x="786" y="179"/>
      <point x="691" y="132"/>
      <point x="510" y="132" type="curve" smooth="yes"/>
      <point x="332" y="132"/>
      <point x="205" y="182"/>
      <point x="128" y="221" type="curve"/>
      <point x="99" y="75" type="line"/>
      <point x="209.057142857" y="9.17142857143"/>
      <point x="375.0" y="-22.0"/>
    </contour>
    <contour>
      <point x="514" y="1098" type="move" name="top"/>
    </contour>
    <contour>
      <point x="514" y="0" type="move" name="bottom"/>
    </contour>
  </outline>
</glyph>
<glyph name="v" format="1">
  <advance width="1127"/>
  <unicode hex="0076"/>
  <outline>
    <contour>
      <point x="452.0" y="0.0" type="line"/>
      <point x="682.0" y="0.0" type="line"/>
      <point x="1124" y="1098" type="line"/>
      <point x="908" y="1098" type="line"/>
      <point x="637" y="334" type="line" smooth="yes"/>
      <point x="573" y="156" type="line"/>
      <point x="571" y="156" type="line"/>
      <point x="501" y="334" type="line"/>
      <point x="205" y="1098" type="line"/>
      <point x="3" y="1098" type="line"/>
    </contour>
  </outline>
</glyph>
<glyph name="y" format="1">
  <advance width="1121"/>
  <unicode hex="0079"/>
  <outline>
    <contour>
      <point x="304" y="-414" type="curve"/>
      <point x="502" y="-414" type="line"/>
      <point x="503" y="-415"/>
      <point x="586" y="-246"/>
      <point x="641" y="-109" type="curve" smooth="yes"/>
      <point x="1127" y="1098" type="line"/>
      <point x="910" y="1098" type="line"/>
      <point x="564" y="172" type="line"/>
      <point x="206" y="1098" type="line"/>
      <point x="4" y="1098" type="line"/>
      <point x="470" y="-57" type="line"/>
      <point x="417" y="-192"/>
      <point x="362" y="-314"/>
    </contour>
    <contour>
      <point x="561" y="1098" type="move" name="top"/>
    </contour>
  </outline>
</glyph>
<glyph name="z" format="1">
  <advance width="1061"/>
  <unicode hex="007A"/>
  <outline>
    <contour>
      <point x="102" y="0" type="line"/>
      <point x="959" y="0" type="line"/>
      <point x="959" y="128" type="line"/>
      <point x="271" y="128" type="line"/>
      <point x="952" y="938" type="line"/>
      <point x="952" y="1096" type="line"/>
      <point x="130" y="1096" type="line"/>
      <point x="130" y="966" type="line"/>
      <point x="769" y="966" type="line"/>
      <point x="102" y="176" type="line"/>
    </contour>
    <contour>
      <point x="531" y="1098" type="move" name="top"/>
    </contour>
  </outline>
</glyph>
<glyph name="asciitilde" format="1">
  <advance width="1586"/>
  <unicode hex="007E"/>
  <outline>
    <contour>
      <point x="336" y="336" type="line"/>
      <point x="336" y="539"/>
      <point x="388" y="653"/>
      <point x="479" y="653" type="curve" smooth="yes"/>
      <point x="579" y="653"/>
      <point x="816" y="329"/>
      <point x="1101" y="329" type="curve" smooth="yes"/>
      <point x="1343" y="329"/>
      <point x="1428" y="505"/>
      <point x="1444" y="820" type="curve"/>
      <point x="1254" y="856" type="line"/>
      <point x="1254" y="677"/>
      <point x="1224" y="533"/>
      <point x="1107" y="533" type="curve" smooth="yes"/>
      <point x="910" y="533"/>
      <point x="682" y="864"/>
      <point x="470" y="864" type="curve" smooth="yes"/>
      <point x="293" y="864"/>
      <point x="163" y="734"/>
      <point x="147" y="382" type="curve"/>
    </contour>
  </outline>
</glyph>
<glyph name="cent" format="1">
  <advance width="1243"/>
  <unicode hex="00A2"/>
  <outline>
    <contour>
      <point x="614" y="-309" type="line"/>
      <point x="723" y="-309" type="line"/>
      <point x="723" y="1387" type="line"/>
      <point x="614" y="1387" type="line"/>
    </contour>
    <component base="c"/>
  </outline>
</glyph>
<glyph name="sterling" format="1">
  <advance width="1211"/>
  <unicode hex="00A3"/>
  <outline>
    <contour>
      <point x="885" y="-38" type="curve" smooth="yes"/>
      <point x="997" y="-38"/>
      <point x="1121" y="-5"/>
      <point x="1236" y="25" type="curve"/>
      <point x="1200" y="170" type="line"/>
      <point x="1101" y="151"/>
      <point x="929" y="112"/>
      <point x="831" y="112" type="curve" smooth="yes"/>
      <point x="736" y="112"/>
      <point x="544" y="153"/>
      <point x="450" y="155" type="curve"/>
      <point x="517" y="265"/>
      <point x="598" y="500"/>
      <point x="598" y="606" type="curve" smooth="yes"/>
      <point x="598" y="618"/>
      <point x="592" y="724"/>
      <point x="591" y="735" type="curve"/>
      <point x="1046" y="735" type="line"/>
      <point x="1046" y="862" type="line"/>
      <point x="570" y="862" type="line"/>
      <point x="555" y="931"/>
      <point x="475" y="1129"/>
      <point x="475" y="1208" type="curve" smooth="yes"/>
      <point x="475" y="1366"/>
      <point x="562" y="1460"/>
      <point x="793" y="1460" type="curve" smooth="yes"/>
      <point x="890" y="1460"/>
      <point x="1014" y="1447"/>
      <point x="1091" y="1332" type="curve"/>
      <point x="1154" y="1332" type="line"/>
      <point x="1154" y="1490" type="line"/>
      <point x="1093" y="1551"/>
      <point x="932" y="1600"/>
      <point x="772" y="1600" type="curve" smooth="yes"/>
      <point x="479" y="1600"/>
      <point x="262" y="1466"/>
      <point x="262" y="1252" type="curve" smooth="yes"/>
      <point x="262" y="1142"/>
      <point x="339" y="1008"/>
      <point x="369" y="862" type="curve"/>
      <point x="115" y="862" type="line"/>
      <point x="115" y="735" type="line"/>
      <point x="395" y="735" type="line"/>
      <point x="395" y="735"/>
      <point x="410" y="698"/>
      <point x="410" y="620" type="curve" smooth="yes"/>
      <point x="410" y="526"/>
      <point x="388" y="372"/>
      <point x="293" y="150" type="curve"/>
      <point x="252" y="141"/>
      <point x="174" y="136"/>
      <point x="105" y="129" type="curve"/>
      <point x="105" y="-17" type="line"/>
      <point x="184" y="-6"/>
      <point x="259" y="12"/>
      <point x="332" y="12" type="curve" smooth="yes"/>
      <point x="504" y="12"/>
      <point x="717" y="-38"/>
    </contour>
  </outline>
</glyph>
<glyph name="currency" format="1">
  <advance width="983"/>
  <unicode hex="00A4"/>
  <outline>
    <contour>
      <point x="139" y="268" type="line"/>
      <point x="240" y="369" type="line"/>
      <point x="297" y="326"/>
      <point x="393" y="289"/>
      <point x="494" y="289" type="curve" smooth="yes"/>
      <point x="594" y="289"/>
      <point x="684" y="322"/>
      <point x="745" y="369" type="curve"/>
      <point x="846" y="268" type="line"/>
      <point x="951" y="375" type="line"/>
      <point x="854" y="474" type="line"/>
      <point x="899" y="531"/>
      <point x="933" y="627"/>
      <point x="933" y="729" type="curve" smooth="yes"/>
      <point x="933" y="829"/>
      <point x="899" y="924"/>
      <point x="854" y="983" type="curve"/>
      <point x="951" y="1083" type="line"/>
      <point x="846" y="1188" type="line"/>
      <point x="745" y="1092" type="line"/>
      <point x="684" y="1137"/>
      <point x="594" y="1169"/>
      <point x="494" y="1169" type="curve" smooth="yes"/>
      <point x="393" y="1169"/>
      <point x="297" y="1135"/>
      <point x="240" y="1090" type="curve"/>
      <point x="139" y="1188" type="line"/>
      <point x="31" y="1083" type="line"/>
      <point x="131" y="983" type="line"/>
      <point x="84" y="924"/>
      <point x="53" y="829"/>
      <point x="53" y="729" type="curve" smooth="yes"/>
      <point x="53" y="629"/>
      <point x="86" y="531"/>
      <point x="131" y="476" type="curve"/>
      <point x="31" y="375" type="line"/>
    </contour>
    <contour>
      <point x="494" y="435" type="curve" smooth="yes"/>
      <point x="327" y="435"/>
      <point x="213" y="548"/>
      <point x="213" y="729" type="curve" smooth="yes"/>
      <point x="213" y="909"/>
      <point x="327" y="1022"/>
      <point x="494" y="1022" type="curve" smooth="yes"/>
      <point x="662" y="1022"/>
      <point x="774" y="909"/>
      <point x="774" y="729" type="curve" smooth="yes"/>
      <point x="774" y="548"/>
      <point x="662" y="435"/>
    </contour>
  </outline>
</glyph>
<glyph name="yen" format="1">
  <advance width="1335"/>
  <unicode hex="00A5"/>
  <outline>
    <contour>
      <point x="743" y="0" type="line"/>
      <point x="743" y="384" type="line"/>
      <point x="1180" y="384" type="line"/>
      <point x="1180" y="483" type="line"/>
      <point x="743" y="483" type="line"/>
      <point x="743" y="661" type="line"/>
      <point x="1180" y="661" type="line"/>
      <point x="1180" y="760" type="line"/>
      <point x="750" y="760" type="line"/>
      <point x="1377" y="1575" type="line"/>
      <point x="1168" y="1575" type="line"/>
      <point x="1168" y="1575"/>
      <point x="650" y="875"/>
      <point x="650" y="875" type="curve"/>
      <point x="650" y="875"/>
      <point x="160" y="1575"/>
      <point x="160" y="1575" type="curve"/>
      <point x="-42" y="1575" type="line"/>
      <point x="542" y="760" type="line"/>
      <point x="132" y="760" type="line"/>
      <point x="132" y="661" type="line"/>
      <point x="554" y="661" type="line"/>
      <point x="554" y="483" type="line"/>
      <point x="132" y="483" type="line"/>
      <point x="132" y="384" type="line"/>
      <point x="554" y="384" type="line"/>
      <point x="554" y="0" type="line"/>
    </contour>
  </outline>
</glyph>
<glyph name="dieresis" format="1">
  <advance width="887"/>
  <unicode hex="00A8"/>
  <outline>
    <contour>
      <point x="148" y="1296" type="line"/>
      <point x="338" y="1296" type="line"/>
      <point x="338" y="1516" type="line"/>
      <point x="148" y="1516" type="line"/>
    </contour>
    <contour>
      <point x="480" y="1296" type="line"/>
      <point x="669" y="1296" type="line"/>
      <point x="669" y="1516" type="line"/>
      <point x="480" y="1516" type="line"/>
    </contour>
    <contour>
      <point x="408" y="1098" type="move" name="_top"/>
    </contour>
  </outline>
</glyph>
<glyph name="copyright" format="1">
  <advance width="1796"/>
  <unicode hex="00A9"/>
  <outline>
    <contour>
      <point x="925" y="231" type="curve" smooth="yes"/>
      <point x="1029" y="231"/>
      <point x="1124" y="255"/>
      <point x="1220" y="322" type="curve"/>
      <point x="1171" y="403" type="line"/>
      <point x="1171" y="403"/>
      <point x="1062" y="326"/>
      <point x="939" y="326" type="curve" smooth="yes"/>
      <point x="769" y="326"/>
      <point x="617" y="431"/>
      <point x="617" y="665" type="curve" smooth="yes"/>
      <point x="617" y="899"/>
      <point x="774" y="997"/>
      <point x="909" y="997" type="curve" smooth="yes"/>
      <point x="1006" y="997"/>
      <point x="1041" y="989"/>
      <point x="1155" y="922" type="curve"/>
      <point x="1192" y="999" type="line"/>
      <point x="1103" y="1066"/>
      <point x="1001" y="1093"/>
      <point x="901" y="1093" type="curve" smooth="yes"/>
      <point x="655" y="1093"/>
      <point x="486" y="928"/>
      <point x="486" y="667" type="curve" smooth="yes"/>
      <point x="486" y="344"/>
      <point x="717" y="231"/>
    </contour>
    <contour>
      <point x="898" y="-25" type="curve" smooth="yes"/>
      <point x="541" y="-25"/>
      <point x="193" y="257"/>
      <point x="193" y="662" type="curve" smooth="yes"/>
      <point x="193" y="1050"/>
      <point x="525" y="1348"/>
      <point x="898" y="1348" type="curve" smooth="yes"/>
      <point x="1256" y="1348"/>
      <point x="1599" y="1063"/>
      <point x="1599" y="660" type="curve" smooth="yes"/>
      <point x="1599" y="263"/>
      <point x="1258" y="-25"/>
    </contour>
    <contour>
      <point x="898" y="-133" type="curve" smooth="yes"/>
      <point x="1349" y="-133"/>
      <point x="1725" y="233"/>
      <point x="1725" y="662" type="curve" smooth="yes"/>
      <point x="1725" y="1096"/>
      <point x="1337" y="1457"/>
      <point x="898" y="1457" type="curve" smooth="yes"/>
      <point x="447" y="1457"/>
      <point x="72" y="1090"/>
      <point x="72" y="662" type="curve" smooth="yes"/>
      <point x="72" y="208"/>
      <point x="464" y="-133"/>
    </contour>
  </outline>
</glyph>
<glyph name="ordfeminine" format="1">
  <advance width="929"/>
  <unicode hex="00AA"/>
  <outline>
    <contour>
      <point x="423" y="698" type="curve" smooth="yes"/>
      <point x="521.005101908" y="698.0"/>
      <point x="621.371167095" y="733.371167095"/>
      <point x="683" y="795" type="curve"/>
      <point x="685" y="795" type="line"/>
      <point x="685" y="713" type="line"/>
      <point x="837" y="713" type="line"/>
      <point x="837" y="1213" type="line" smooth="yes"/>
      <point x="837" y="1412"/>
      <point x="766" y="1521"/>
      <point x="514" y="1521" type="curve" smooth="yes"/>
      <point x="386" y="1521"/>
      <point x="290" y="1494"/>
      <point x="213" y="1456" type="curve"/>
      <point x="250" y="1338" type="line"/>
      <point x="331" y="1374"/>
      <point x="408" y="1393"/>
      <point x="517" y="1393" type="curve" smooth="yes"/>
      <point x="650" y="1393"/>
      <point x="685" y="1341"/>
      <point x="685" y="1197" type="curve"/>
      <point x="371" y="1197"/>
      <point x="187" y="1138"/>
      <point x="187" y="935" type="curve" smooth="yes"/>
      <point x="187" y="760"/>
      <point x="318" y="698"/>
    </contour>
    <contour>
      <point x="453" y="825" type="curve" smooth="yes"/>
      <point x="354" y="825"/>
      <point x="333" y="891"/>
      <point x="333" y="948" type="curve" smooth="yes"/>
      <point x="333" y="1038"/>
      <point x="442" y="1091"/>
      <point x="685" y="1091" type="curve"/>
      <point x="685" y="938" type="line"/>
      <point x="662.945826406" y="898.092447781"/>
      <point x="557.604088502" y="825.0"/>
    </contour>
  </outline>
</glyph>
<glyph name="guillemotleft" format="1">
  <advance width="999"/>
  <unicode hex="00AB"/>
  <outline>
    <contour>
      <point x="525" y="173" type="curve"/>
      <point x="525" y="372" type="line"/>
      <point x="525" y="372"/>
      <point x="190" y="619"/>
      <point x="190" y="619" type="curve"/>
      <point x="525" y="871" type="line"/>
      <point x="525" y="1085" type="line"/>
      <point x="525" y="1085"/>
      <point x="137" y="766"/>
      <point x="27" y="676" type="curve"/>
      <point x="27" y="568" type="line"/>
      <point x="136" y="487"/>
      <point x="525" y="173"/>
    </contour>
    <contour>
      <point x="958" y="173" type="curve"/>
      <point x="958" y="372" type="line"/>
      <point x="958" y="372"/>
      <point x="621" y="619"/>
      <point x="621" y="619" type="curve"/>
      <point x="958" y="871" type="line"/>
      <point x="958" y="1085" type="line"/>
      <point x="958" y="1085"/>
      <point x="568" y="766"/>
      <point x="458" y="676" type="curve"/>
      <point x="458" y="568" type="line"/>
      <point x="567" y="487"/>
      <point x="958" y="173"/>
    </contour>
  </outline>
</glyph>
<glyph name="registered" format="1">
  <advance width="1796"/>
  <unicode hex="00AE"/>
  <outline>
    <contour>
      <point x="570" y="249" type="line"/>
      <point x="696" y="249" type="line"/>
      <point x="696" y="628" type="line"/>
      <point x="914" y="628" type="line"/>
      <point x="1173" y="249" type="line"/>
      <point x="1279" y="249" type="line"/>
      <point x="1279" y="294" type="line"/>
      <point x="1036" y="643" type="line"/>
      <point x="1154" y="653"/>
      <point x="1247" y="735"/>
      <point x="1247" y="876" type="curve" smooth="yes"/>
      <point x="1247" y="1083"/>
      <point x="1059" y="1124"/>
      <point x="876" y="1124" type="curve" smooth="yes"/>
      <point x="570" y="1124" type="line"/>
    </contour>
    <contour>
      <point x="696" y="723" type="line"/>
      <point x="696" y="1025" type="line"/>
      <point x="879" y="1025" type="line" smooth="yes"/>
      <point x="1120" y="1025"/>
      <point x="1125" y="958"/>
      <point x="1125" y="862" type="curve" smooth="yes"/>
      <point x="1125" y="780"/>
      <point x="1056" y="723"/>
      <point x="937" y="723" type="curve" smooth="yes"/>
    </contour>
    <contour>
      <point x="898" y="-25" type="curve" smooth="yes"/>
      <point x="541" y="-25"/>
      <point x="193" y="257"/>
      <point x="193" y="662" type="curve" smooth="yes"/>
      <point x="193" y="1050"/>
      <point x="525" y="1348"/>
      <point x="898" y="1348" type="curve" smooth="yes"/>
      <point x="1256" y="1348"/>
      <point x="1599" y="1063"/>
      <point x="1599" y="660" type="curve" smooth="yes"/>
      <point x="1599" y="263"/>
      <point x="1258" y="-25"/>
    </contour>
    <contour>
      <point x="898" y="-133" type="curve" smooth="yes"/>
      <point x="1349" y="-133"/>
      <point x="1725" y="233"/>
      <point x="1725" y="662" type="curve" smooth="yes"/>
      <point x="1725" y="1096"/>
      <point x="1337" y="1457"/>
      <point x="898" y="1457" type="curve" smooth="yes"/>
      <point x="447" y="1457"/>
      <point x="72" y="1090"/>
      <point x="72" y="662" type="curve" smooth="yes"/>
      <point x="72" y="208"/>
      <point x="464" y="-133"/>
    </contour>
  </outline>
</glyph>
<glyph name="macron" format="1">
  <advance width="492"/>
  <unicode hex="00AF"/>
  <outline>
    <contour>
      <point x="-49" y="1257" type="line"/>
      <point x="540" y="1257" type="line"/>
      <point x="540" y="1375" type="line"/>
      <point x="-49" y="1375" type="line"/>
    </contour>
    <contour>
      <point x="246" y="1098" type="move" name="_top"/>
    </contour>
  </outline>
</glyph>
<glyph name="plusminus" format="1">
  <advance width="1586"/>
  <unicode hex="00B1"/>
  <outline>
    <contour>
      <point x="638" y="304" type="line"/>
      <point x="781" y="304" type="line"/>
      <point x="781" y="686" type="line"/>
      <point x="1252" y="686" type="line"/>
      <point x="1252" y="827" type="line"/>
      <point x="781" y="827" type="line"/>
      <point x="781" y="1195" type="line"/>
      <point x="638" y="1195" type="line"/>
      <point x="638" y="827" type="line"/>
      <point x="180" y="827" type="line"/>
      <point x="180" y="686" type="line"/>
      <point x="638" y="686" type="line"/>
    </contour>
    <contour>
      <point x="196" y="0" type="line"/>
      <point x="1232" y="0" type="line"/>
      <point x="1232" y="141" type="line"/>
      <point x="196" y="141" type="line"/>
    </contour>
  </outline>
</glyph>
<glyph name="acute" format="1">
  <advance width="896"/>
  <unicode hex="00B4"/>
  <outline>
    <contour>
      <point x="343" y="1194" type="line"/>
      <point x="469" y="1194" type="line"/>
      <point x="778" y="1559" type="line"/>
      <point x="542" y="1559" type="line"/>
    </contour>
    <contour>
      <point x="560" y="1098" type="move" name="_top"/>
    </contour>
  </outline>
</glyph>
<glyph name="onequarter" format="1">
  <advance width="1559.0"/>
  <unicode hex="00BC"/>
  <outline>
    <contour>
      <point x="1286.0" y="0.0" type="line"/>
      <point x="1401.0" y="0.0" type="line"/>
      <point x="1401.0" y="128.0" type="line"/>
      <point x="1493.0" y="128.0" type="line"/>
      <point x="1493.0" y="237.0" type="line"/>
      <point x="1401.0" y="237.0" type="line"/>
      <point x="1401.0" y="870.0" type="line"/>
      <point x="1219.0" y="870.0" type="line"/>
      <point x="850.0" y="237.0" type="line"/>
      <point x="850.0" y="128.0" type="line"/>
      <point x="1286.0" y="128.0" type="line"/>
    </contour>
    <contour>
      <point x="309.0" y="0.0" type="line"/>
      <point x="444.0" y="0.0" type="line"/>
      <point x="1329.0" y="1521.0" type="line"/>
      <point x="1193.0" y="1521.0" type="line"/>
    </contour>
    <contour>
      <point x="976.0" y="237.0" type="line"/>
      <point x="1286.0" y="775.0" type="line"/>
      <point x="1286.0" y="237.0" type="line"/>
    </contour>
    <component base="one.superior" xOffset="-80"/>
  </outline>
</glyph>
<glyph name="threequarters" format="1">
  <advance width="1632"/>
  <unicode hex="00BE"/>
  <outline>
    <contour>
      <point x="1376.0" y="0.0" type="line"/>
      <point x="1491.0" y="0.0" type="line"/>
      <point x="1491.0" y="128.0" type="line"/>
      <point x="1583.0" y="128.0" type="line"/>
      <point x="1583.0" y="237.0" type="line"/>
      <point x="1491.0" y="237.0" type="line"/>
      <point x="1491.0" y="870.0" type="line"/>
      <point x="1309.0" y="870.0" type="line"/>
      <point x="940.0" y="237.0" type="line"/>
      <point x="940.0" y="128.0" type="line"/>
      <point x="1376.0" y="128.0" type="line"/>
    </contour>
    <contour>
      <point x="399.0" y="0.0" type="line"/>
      <point x="534.0" y="0.0" type="line"/>
      <point x="1419.0" y="1521.0" type="line"/>
      <point x="1283.0" y="1521.0" type="line"/>
    </contour>
    <contour>
      <point x="1066.0" y="237.0" type="line"/>
      <point x="1376.0" y="775.0" type="line"/>
      <point x="1376.0" y="237.0" type="line"/>
    </contour>
    <component base="three.superior" xOffset="40"/>
  </outline>
</glyph>
<glyph name="Oslash" format="1">
  <advance width="1668"/>
  <unicode hex="00D8"/>
  <outline>
    <contour>
      <point x="834" y="-24" type="curve" smooth="yes"/>
      <point x="1325" y="-24"/>
      <point x="1560" y="301"/>
      <point x="1560" y="788" type="curve" smooth="yes"/>
      <point x="1560" y="1027"/>
      <point x="1504" y="1226"/>
      <point x="1391" y="1366" type="curve"/>
      <point x="1563" y="1575" type="line"/>
      <point x="1356" y="1575" type="line"/>
      <point x="1274" y="1476" type="line"/>
      <point x="1162" y="1555"/>
      <point x="1015" y="1599"/>
      <point x="834" y="1599" type="curve" smooth="yes"/>
      <point x="344" y="1599"/>
      <point x="108" y="1280"/>
      <point x="108" y="788" type="curve" smooth="yes"/>
      <point x="108" y="565"/>
      <point x="157" y="377"/>
      <point x="256" y="238" type="curve"/>
      <point x="61" y="0" type="line"/>
      <point x="267" y="0" type="line"/>
      <point x="366" y="121" type="line"/>
      <point x="482" y="28"/>
      <point x="638" y="-24"/>
    </contour>
    <contour>
      <point x="376" y="383" type="line"/>
      <point x="319" y="499"/>
      <point x="299" y="642"/>
      <point x="299" y="788" type="curve" smooth="yes"/>
      <point x="299" y="1109"/>
      <point x="406" y="1453"/>
      <point x="834" y="1453" type="curve" smooth="yes"/>
      <point x="979" y="1453"/>
      <point x="1088" y="1413"/>
      <point x="1168" y="1347" type="curve"/>
    </contour>
    <contour>
      <point x="834" y="123" type="curve" smooth="yes"/>
      <point x="671" y="123"/>
      <point x="554" y="171"/>
      <point x="472" y="249" type="curve"/>
      <point x="1272" y="1222" type="line"/>
      <point x="1343" y="1101"/>
      <point x="1369" y="945"/>
      <point x="1369" y="788" type="curve" smooth="yes"/>
      <point x="1369" y="451"/>
      <point x="1248" y="123"/>
    </contour>
    <contour>
      <point x="835" y="1575" type="move" name="top"/>
    </contour>
  </outline>
</glyph>
<glyph name="Thorn" format="1">
  <advance width="1213"/>
  <unicode hex="00DE"/>
  <outline>
    <contour>
      <point x="186" y="0" type="line"/>
      <point x="375" y="0" type="line"/>
      <point x="375" y="374" type="line"/>
      <point x="711" y="374" type="line" smooth="yes"/>
      <point x="1009" y="374"/>
      <point x="1166" y="544"/>
      <point x="1166" y="792" type="curve" smooth="yes"/>
      <point x="1166" y="1032"/>
      <point x="1009" y="1206"/>
      <point x="711" y="1206" type="curve" smooth="yes"/>
      <point x="375" y="1206" type="line"/>
      <point x="375" y="1575" type="line"/>
      <point x="186" y="1575" type="line"/>
    </contour>
    <contour>
      <point x="375" y="515" type="line"/>
      <point x="375" y="1065" type="line"/>
      <point x="705" y="1065" type="line" smooth="yes"/>
      <point x="855" y="1065"/>
      <point x="977" y="986"/>
      <point x="977" y="792" type="curve" smooth="yes"/>
      <point x="977" y="589"/>
      <point x="855" y="515"/>
      <point x="707" y="515" type="curve" smooth="yes"/>
    </contour>
  </outline>
</glyph>
<glyph name="ae" format="1">
  <advance width="1874"/>
  <unicode hex="00E6"/>
  <outline>
    <contour>
      <point x="456" y="-24" type="curve" smooth="yes"/>
      <point x="675" y="-24"/>
      <point x="842" y="67"/>
      <point x="915" y="235" type="curve"/>
      <point x="959.216554001" y="107.491797766"/>
      <point x="1108.57982806" y="-23.0"/>
      <point x="1363" y="-23" type="curve" smooth="yes"/>
      <point x="1584" y="-23"/>
      <point x="1678" y="47"/>
      <point x="1768" y="106" type="curve"/>
      <point x="1719" y="241" type="line"/>
      <point x="1700" y="241" type="line"/>
      <point x="1657" y="201"/>
      <point x="1552" y="134"/>
      <point x="1376" y="134" type="curve" smooth="yes"/>
      <point x="1133" y="134"/>
      <point x="991" y="285"/>
      <point x="991" y="499" type="curve"/>
      <point x="1787" y="499" type="line"/>
      <point x="1787" y="532" type="line" smooth="yes"/>
      <point x="1787" y="853"/>
      <point x="1641" y="1123"/>
      <point x="1306" y="1123" type="curve" smooth="yes"/>
      <point x="1174" y="1123"/>
      <point x="997" y="1047"/>
      <point x="929" y="926" type="curve"/>
      <point x="862" y="1090"/>
      <point x="714" y="1126"/>
      <point x="527" y="1126" type="curve" smooth="yes"/>
      <point x="406" y="1126"/>
      <point x="225" y="1093"/>
      <point x="154" y="1043" type="curve"/>
      <point x="195" y="898" type="line"/>
      <point x="290" y="944"/>
      <point x="423" y="973"/>
      <point x="543" y="973" type="curve" smooth="yes"/>
      <point x="789" y="973"/>
      <point x="817" y="856"/>
      <point x="822" y="676" type="curve"/>
      <point x="726.370668552" y="676.0"/>
      <point x="641.954356442" y="672.502417149"/>
      <point x="567.717543205" y="665.496152374" type="curve" smooth="yes"/>
      <point x="209.055339806" y="631.64660722"/>
      <point x="88.0" y="515.898442329"/>
      <point x="88" y="317" type="curve" smooth="yes"/>
      <point x="88" y="59"/>
      <point x="298" y="-24"/>
    </contour>
    <contour>
      <point x="453" y="119" type="curve" smooth="yes"/>
      <point x="329" y="119"/>
      <point x="262" y="198"/>
      <point x="262" y="319" type="curve" smooth="yes"/>
      <point x="262" y="443"/>
      <point x="320" y="547"/>
      <point x="822" y="547" type="curve"/>
      <point x="819" y="257"/>
      <point x="711" y="119"/>
    </contour>
    <contour>
      <point x="993" y="633" type="line"/>
      <point x="1008" y="786"/>
      <point x="1103" y="973"/>
      <point x="1321" y="973" type="curve" smooth="yes"/>
      <point x="1531" y="973"/>
      <point x="1602" y="779"/>
      <point x="1604" y="633" type="curve"/>
    </contour>
    <contour>
      <point x="938" y="1098" type="move" name="top"/>
    </contour>
  </outline>
</glyph>
<glyph name="eth" format="1">
  <advance width="2048"/>
  <unicode hex="00F0"/>
  <outline>
    <contour>
      <point x="658" y="-24" type="curve" smooth="yes"/>
      <point x="976" y="-24"/>
      <point x="1198" y="199"/>
      <point x="1198" y="569" type="curve" smooth="yes"/>
      <point x="1198" y="854.674"/>
      <point x="1095.78" y="1159"/>
      <point x="901.64" y="1357.17" type="curve"/>
      <point x="1075" y="1529" type="line"/>
      <point x="976" y="1618" type="line"/>
      <point x="800.423" y="1444.36" type="line"/>
      <point x="686.807" y="1525.99"/>
      <point x="549.881" y="1575"/>
      <point x="391" y="1575" type="curve" smooth="yes"/>
      <point x="386" y="1575"/>
      <point x="356" y="1439"/>
      <point x="356" y="1439" type="curve"/>
      <point x="484.292" y="1439"/>
      <point x="594.559" y="1398.62"/>
      <point x="686.482" y="1331.68" type="curve"/>
      <point x="523" y="1170" type="line"/>
      <point x="622" y="1080" type="line"/>
      <point x="785.573" y="1242.13" type="line"/>
      <point x="904.523" y="1110.95"/>
      <point x="980.05" y="929.976"/>
      <point x="1011" y="749" type="curve"/>
      <point x="931" y="909"/>
      <point x="715" y="945"/>
      <point x="622" y="945" type="curve" smooth="yes"/>
      <point x="375" y="945"/>
      <point x="132" y="779"/>
      <point x="132" y="481" type="curve" smooth="yes"/>
      <point x="132" y="174"/>
      <point x="349" y="-24"/>
    </contour>
    <contour>
      <point x="676" y="117" type="curve" smooth="yes"/>
      <point x="400" y="117"/>
      <point x="316" y="291"/>
      <point x="316" y="483" type="curve" smooth="yes"/>
      <point x="316" y="637"/>
      <point x="421" y="804"/>
      <point x="641" y="804" type="curve" smooth="yes"/>
      <point x="900" y="804"/>
      <point x="1000" y="638"/>
      <point x="1000" y="448" type="curve" smooth="yes"/>
      <point x="1000" y="289"/>
      <point x="885" y="117"/>
    </contour>
  </outline>
</glyph>
<glyph name="thorn" format="1">
  <advance width="1234"/>
  <unicode hex="00FE"/>
  <outline>
    <contour>
      <point x="141" y="-413" type="line"/>
      <point x="330" y="-413" type="line"/>
      <point x="330" y="114" type="line"/>
      <point x="410.462412762" y="13.4219840477"/>
      <point x="540" y="-22"/>
      <point x="671" y="-22" type="curve" smooth="yes"/>
      <point x="939" y="-22"/>
      <point x="1138" y="169"/>
      <point x="1138" y="543" type="curve" smooth="yes"/>
      <point x="1138" y="912"/>
      <point x="950" y="1121"/>
      <point x="660" y="1121" type="curve" smooth="yes"/>
      <point x="529" y="1121"/>
      <point x="398" y="1049"/>
      <point x="330" y="939" type="curve"/>
      <point x="330" y="1521" type="line"/>
      <point x="141" y="1521" type="line"/>
    </contour>
    <contour>
      <point x="639" y="119" type="curve" smooth="yes"/>
      <point x="584" y="119"/>
      <point x="416" y="137"/>
      <point x="330" y="246" type="curve"/>
      <point x="330" y="834" type="line"/>
      <point x="407" y="937"/>
      <point x="562" y="971"/>
      <point x="650" y="971" type="curve" smooth="yes"/>
      <point x="896" y="971"/>
      <point x="949" y="771"/>
      <point x="949" y="544" type="curve" smooth="yes"/>
      <point x="949" y="274"/>
      <point x="835" y="119"/>
    </contour>
  </outline>
</glyph>
<glyph name="OE" format="1">
  <advance width="2037"/>
  <unicode hex="0152"/>
  <outline>
    <contour>
      <point x="789" y="0" type="curve" smooth="yes"/>
      <point x="1914" y="0" type="line"/>
      <point x="1914" y="141" type="line"/>
      <point x="1249" y="141" type="line"/>
      <point x="1249" y="765" type="line"/>
      <point x="1827" y="765" type="line"/>
      <point x="1827" y="906" type="line"/>
      <point x="1249" y="906" type="line"/>
      <point x="1249" y="1434" type="line"/>
      <point x="1913" y="1434" type="line"/>
      <point x="1913" y="1575" type="line"/>
      <point x="739" y="1575" type="line" smooth="yes"/>
      <point x="285" y="1575"/>
      <point x="108" y="1188"/>
      <point x="108" y="808" type="curve" smooth="yes"/>
      <point x="108" y="485"/>
      <point x="161" y="0"/>
    </contour>
    <contour>
      <point x="756" y="141" type="curve"/>
      <point x="392" y="139"/>
      <point x="297" y="471"/>
      <point x="297" y="806" type="curve" smooth="yes"/>
      <point x="297" y="1144"/>
      <point x="413" y="1434"/>
      <point x="759" y="1434" type="curve" smooth="yes"/>
      <point x="1060" y="1434" type="line"/>
      <point x="1060" y="141" type="line"/>
      <point x="1061" y="141"/>
      <point x="855" y="141"/>
    </contour>
    <contour>
      <point x="1100" y="1575" type="move" name="top"/>
    </contour>
  </outline>
</glyph>
<glyph name="florin" format="1">
  <advance width="1245"/>
  <unicode hex="0192"/>
  <outline>
    <contour>
      <point x="241" y="-255" type="curve" smooth="yes"/>
      <point x="464" y="-255"/>
      <point x="584" y="-123"/>
      <point x="638" y="142" type="curve"/>
      <point x="653" y="230"/>
      <point x="699" y="533"/>
      <point x="735" y="774" type="curve"/>
      <point x="1047" y="774" type="line"/>
      <point x="1067" y="883" type="line"/>
      <point x="752" y="883" type="line"/>
      <point x="770" y="999"/>
      <point x="782" y="1084"/>
      <point x="784" y="1095" type="curve" smooth="yes"/>
      <point x="826" y="1339"/>
      <point x="874" y="1440"/>
      <point x="1008" y="1440" type="curve" smooth="yes"/>
      <point x="1043" y="1440"/>
      <point x="1108" y="1431"/>
      <point x="1136" y="1419" type="curve"/>
      <point x="1160" y="1560" type="line"/>
      <point x="1129" y="1570"/>
      <point x="1084" y="1578"/>
      <point x="1031" y="1578" type="curve" smooth="yes"/>
      <point x="789" y="1578"/>
      <point x="638" y="1422"/>
      <point x="589" y="1133" type="curve" smooth="yes"/>
      <point x="587" y="1121"/>
      <point x="571" y="1018"/>
      <point x="550" y="883" type="curve"/>
      <point x="293" y="883" type="line"/>
      <point x="273" y="774" type="line"/>
      <point x="534" y="774" type="line"/>
      <point x="495" y="519"/>
      <point x="449" y="218"/>
      <point x="444" y="190" type="curve" smooth="yes"/>
      <point x="402" y="-64"/>
      <point x="334" y="-103"/>
      <point x="241" y="-103" type="curve" smooth="yes"/>
      <point x="208" y="-103"/>
      <point x="157" y="-94"/>
      <point x="128" y="-82" type="curve"/>
      <point x="103" y="-233" type="line"/>
      <point x="137" y="-244"/>
      <point x="184" y="-255"/>
    </contour>
  </outline>
</glyph>
<glyph name="breve" format="1">
  <advance width="893"/>
  <unicode hex="02D8"/>
  <outline>
    <contour>
      <point x="450" y="1218" type="curve" smooth="yes"/>
      <point x="673" y="1218"/>
      <point x="810" y="1338"/>
      <point x="810" y="1565" type="curve"/>
      <point x="647" y="1565" type="line"/>
      <point x="647" y="1430"/>
      <point x="588" y="1371"/>
      <point x="450" y="1371" type="curve" smooth="yes"/>
      <point x="300" y="1371"/>
      <point x="253" y="1431"/>
      <point x="253" y="1565" type="curve"/>
      <point x="92" y="1565" type="line"/>
      <point x="92" y="1339"/>
      <point x="209" y="1218"/>
    </contour>
    <contour>
      <point x="451" y="1098" type="move" name="_top"/>
    </contour>
  </outline>
</glyph>
<glyph name="ring" format="1">
  <advance width="897"/>
  <unicode hex="02DA"/>
  <outline>
    <contour>
      <point x="449" y="1183" type="curve" smooth="yes"/>
      <point x="362" y="1183"/>
      <point x="299" y="1250"/>
      <point x="299" y="1338" type="curve" smooth="yes"/>
      <point x="299" y="1426"/>
      <point x="365" y="1494"/>
      <point x="449" y="1494" type="curve" smooth="yes"/>
      <point x="536" y="1494"/>
      <point x="600" y="1422"/>
      <point x="600" y="1338" type="curve" smooth="yes"/>
      <point x="600" y="1253"/>
      <point x="536" y="1183"/>
    </contour>
    <contour>
      <point x="449" y="1109" type="curve" smooth="yes"/>
      <point x="584" y="1109"/>
      <point x="692" y="1208"/>
      <point x="692" y="1339" type="curve" smooth="yes"/>
      <point x="692" y="1469"/>
      <point x="584" y="1568"/>
      <point x="449" y="1568" type="curve" smooth="yes"/>
      <point x="316" y="1568"/>
      <point x="206" y="1468"/>
      <point x="206" y="1340" type="curve" smooth="yes"/>
      <point x="206" y="1210"/>
      <point x="314" y="1109"/>
    </contour>
    <contour>
      <point x="449" y="1098" type="move" name="_top"/>
    </contour>
  </outline>
</glyph>
<glyph name="hungarumlaut" format="1">
  <advance width="898"/>
  <unicode hex="02DD"/>
  <outline>
    <contour>
      <point x="53" y="1194" type="line"/>
      <point x="179" y="1194" type="line"/>
      <point x="444" y="1559" type="line"/>
      <point x="252" y="1559" type="line"/>
    </contour>
    <contour>
      <point x="315" y="1194" type="line"/>
      <point x="442" y="1194" type="line"/>
      <point x="750" y="1559" type="line"/>
      <point x="529" y="1559" type="line"/>
    </contour>
    <contour>
      <point x="401" y="1098" type="move" name="_top"/>
    </contour>
  </outline>
</glyph>
<glyph name="Omega" format="1">
  <advance width="1511"/>
  <unicode hex="03A9"/>
  <outline>
    <contour>
      <point x="82" y="0" type="line"/>
      <point x="650" y="0" type="line"/>
      <point x="650" y="211" type="line"/>
      <point x="475" y="357"/>
      <point x="395" y="534"/>
      <point x="395" y="764" type="curve" smooth="yes"/>
      <point x="395" y="1035"/>
      <point x="547" y="1212"/>
      <point x="761" y="1212" type="curve" smooth="yes"/>
      <point x="975" y="1212"/>
      <point x="1115" y="1016"/>
      <point x="1115" y="774" type="curve" smooth="yes"/>
      <point x="1115" y="528"/>
      <point x="1018" y="339"/>
      <point x="860" y="211" type="curve"/>
      <point x="860" y="0" type="line"/>
      <point x="1426" y="0" type="line"/>
      <point x="1426" y="229" type="line"/>
      <point x="1181" y="229" type="line"/>
      <point x="1103" y="231" type="line"/>
      <point x="1300" y="356"/>
      <point x="1419" y="559"/>
      <point x="1419" y="822" type="curve" smooth="yes"/>
      <point x="1419" y="1171"/>
      <point x="1162" y="1453"/>
      <point x="757" y="1453" type="curve" smooth="yes"/>
      <point x="369" y="1453"/>
      <point x="92" y="1191"/>
      <point x="92" y="813" type="curve" smooth="yes"/>
      <point x="92" y="552"/>
      <point x="214" y="332"/>
      <point x="400" y="229" type="curve"/>
      <point x="82" y="229" type="line"/>
    </contour>
    <contour>
      <point x="20" y="1575" type="move" name="topleft"/>
    </contour>
  </outline>
</glyph>
<glyph name="mu" format="1">
  <advance width="1206"/>
  <unicode hex="03BC"/>
  <outline>
    <contour>
      <point x="115" y="-358" type="line"/>
      <point x="304" y="-358" type="line"/>
      <point x="304" y="-358"/>
      <point x="304" y="-167"/>
      <point x="304" y="47" type="curve"/>
      <point x="348" y="0"/>
      <point x="425" y="-22"/>
      <point x="494" y="-22" type="curve" smooth="yes"/>
      <point x="647" y="-22"/>
      <point x="804" y="24"/>
      <point x="894" y="164" type="curve"/>
      <point x="894" y="0" type="line"/>
      <point x="1083" y="0" type="line"/>
      <point x="1083" y="1098" type="line"/>
      <point x="894" y="1098" type="line"/>
      <point x="894" y="304" type="line" smooth="yes"/>
      <point x="894" y="258"/>
      <point x="739" y="128"/>
      <point x="543" y="128" type="curve" smooth="yes"/>
      <point x="437" y="128"/>
      <point x="312" y="167"/>
      <point x="304" y="330" type="curve"/>
      <point x="304" y="707"/>
      <point x="304" y="1099"/>
      <point x="304" y="1099" type="curve"/>
      <point x="115" y="1099" type="line"/>
    </contour>
  </outline>
</glyph>
<glyph name="uni03BC" format="1">
  <advance width="1206"/>
  <unicode hex="03BC"/>
  <outline>
    <contour>
      <point x="115.0" y="-358.0" type="line"/>
      <point x="304.0" y="-358.0" type="line"/>
      <point x="304.0" y="-358.0"/>
      <point x="304.0" y="-167.0"/>
      <point x="304.0" y="47.0" type="curve"/>
      <point x="348.0" y="0.0"/>
      <point x="425.0" y="-22.0"/>
      <point x="494.0" y="-22.0" type="curve" smooth="yes"/>
      <point x="647.0" y="-22.0"/>
      <point x="804.0" y="24.0"/>
      <point x="894.0" y="164.0" type="curve"/>
      <point x="894.0" y="0.0" type="line"/>
      <point x="1083.0" y="0.0" type="line"/>
      <point x="1083.0" y="1098.0" type="line"/>
      <point x="894.0" y="1098.0" type="line"/>
      <point x="894.0" y="304.0" type="line" smooth="yes"/>
      <point x="894.0" y="258.0"/>
      <point x="739.0" y="128.0"/>
      <point x="543.0" y="128.0" type="curve" smooth="yes"/>
      <point x="437.0" y="128.0"/>
      <point x="312.0" y="167.0"/>
      <point x="304.0" y="330.0" type="curve"/>
      <point x="304.0" y="707.0"/>
      <point x="304.0" y="1099.0"/>
      <point x="304.0" y="1099.0" type="curve"/>
      <point x="115.0" y="1099.0" type="line"/>
    </contour>
  </outline>
</glyph>
<glyph name="pi" format="1">
  <advance width="1286"/>
  <unicode hex="03C0"/>
  <outline>
    <contour>
      <point x="166" y="0" type="curve"/>
      <point x="440" y="0" type="line"/>
      <point x="468" y="78"/>
      <point x="486" y="196"/>
      <point x="493" y="339" type="curve" smooth="yes"/>
      <point x="502" y="506"/>
      <point x="508" y="679"/>
      <point x="510" y="828" type="curve"/>
      <point x="767" y="828" type="line"/>
      <point x="767" y="346" type="line" smooth="yes"/>
      <point x="767" y="149"/>
      <point x="835" y="34"/>
      <point x="975" y="10" type="curve"/>
      <point x="1017" y="1"/>
      <point x="1056" y="1"/>
      <point x="1094" y="9" type="curve"/>
      <point x="1163" y="163" type="line"/>
      <point x="1137" y="175"/>
      <point x="1113" y="199"/>
      <point x="1094" y="254" type="curve"/>
      <point x="1057" y="266"/>
      <point x="1039" y="308"/>
      <point x="1039" y="381" type="curve" smooth="yes"/>
      <point x="1039" y="828" type="line"/>
      <point x="1228" y="828" type="line"/>
      <point x="1233" y="1041" type="line"/>
      <point x="349" y="1041" type="line" smooth="yes"/>
      <point x="187" y="1041"/>
      <point x="82" y="1030"/>
      <point x="11" y="979" type="curve"/>
      <point x="21" y="767" type="line"/>
      <point x="86" y="807"/>
      <point x="154" y="828"/>
      <point x="240" y="828" type="curve"/>
      <point x="239" y="681"/>
      <point x="233" y="514"/>
      <point x="224" y="352" type="curve" smooth="yes"/>
      <point x="216" y="211"/>
      <point x="197" y="90"/>
    </contour>
  </outline>
</glyph>
<glyph name="quoteright" format="1">
  <advance width="563"/>
  <unicode hex="2019"/>
  <outline>
    <contour>
      <point x="97" y="1058" type="line"/>
      <point x="230" y="1058" type="line"/>
      <point x="405" y="1575" type="line"/>
      <point x="202" y="1575" type="line"/>
    </contour>
  </outline>
</glyph>
<glyph name="quotedblbase" format="1">
  <advance width="944"/>
  <unicode hex="201E"/>
  <outline>
    <contour>
      <point x="75" y="-259" type="line"/>
      <point x="245" y="-259" type="line"/>
      <point x="482" y="258" type="line"/>
      <point x="180" y="258" type="line"/>
    </contour>
    <contour>
      <point x="484" y="-259" type="line"/>
      <point x="654" y="-259" type="line"/>
      <point x="891" y="258" type="line"/>
      <point x="589" y="258" type="line"/>
    </contour>
  </outline>
</glyph>
<glyph name="dagger" format="1">
  <advance width="1252"/>
  <unicode hex="2020"/>
  <outline>
    <contour>
      <point x="535" y="-53" type="line"/>
      <point x="724" y="-53" type="line"/>
      <point x="724" y="920" type="line"/>
      <point x="1104" y="920" type="line"/>
      <point x="1104" y="1062" type="line"/>
      <point x="727" y="1062" type="line"/>
      <point x="727" y="1520" type="line"/>
      <point x="539" y="1520" type="line"/>
      <point x="539" y="1064" type="line"/>
      <point x="148" y="1064" type="line"/>
      <point x="148" y="923" type="line"/>
      <point x="535" y="923" type="line"/>
    </contour>
  </outline>
</glyph>
<glyph name="daggerdbl" format="1">
  <advance width="1252"/>
  <unicode hex="2021"/>
  <outline>
    <contour>
      <point x="532" y="-53" type="line"/>
      <point x="724" y="-53" type="line"/>
      <point x="724" y="403" type="line"/>
      <point x="1111" y="403" type="line"/>
      <point x="1111" y="544" type="line"/>
      <point x="724" y="544" type="line"/>
      <point x="724" y="920" type="line"/>
      <point x="1104" y="920" type="line"/>
      <point x="1104" y="1062" type="line"/>
      <point x="727" y="1062" type="line"/>
      <point x="727" y="1520" type="line"/>
      <point x="535" y="1520" type="line"/>
      <point x="535" y="1064" type="line"/>
      <point x="148" y="1064" type="line"/>
      <point x="148" y="923" type="line"/>
      <point x="535" y="923" type="line"/>
      <point x="535" y="547" type="line"/>
      <point x="155" y="547" type="line"/>
      <point x="155" y="405" type="line"/>
      <point x="532" y="405" type="line"/>
    </contour>
  </outline>
</glyph>
<glyph name="bullet" format="1">
  <advance width="1316"/>
  <unicode hex="2022"/>
  <outline>
    <contour>
      <point x="657" y="231" type="curve" smooth="yes"/>
      <point x="928" y="231"/>
      <point x="1128" y="432"/>
      <point x="1128" y="694" type="curve" smooth="yes"/>
      <point x="1128" y="953"/>
      <point x="930" y="1154"/>
      <point x="657" y="1154" type="curve" smooth="yes"/>
      <point x="387" y="1154"/>
      <point x="186" y="953"/>
      <point x="186" y="694" type="curve" smooth="yes"/>
      <point x="186" y="433"/>
      <point x="385" y="231"/>
    </contour>
  </outline>
</glyph>
<glyph name="ellipsis" format="1">
  <advance width="2238"/>
  <unicode hex="2026"/>
  <outline>
    <contour>
      <point x="1690" y="0" type="curve"/>
      <point x="2043" y="0" type="line"/>
      <point x="2042" y="77"/>
      <point x="2038" y="150"/>
      <point x="2038" y="226" type="curve" smooth="yes"/>
      <point x="2038" y="274"/>
      <point x="2039" y="322"/>
      <point x="2043" y="373" type="curve"/>
      <point x="1690" y="373" type="line"/>
      <point x="1691" y="309"/>
      <point x="1693" y="246"/>
      <point x="1693" y="182" type="curve" smooth="yes"/>
      <point x="1693" y="161"/>
      <point x="1694" y="140"/>
      <point x="1694" y="118" type="curve" smooth="yes"/>
      <point x="1694" y="80"/>
      <point x="1691" y="41"/>
    </contour>
    <contour>
      <point x="198" y="0" type="curve"/>
      <point x="549" y="0" type="line"/>
      <point x="546" y="76"/>
      <point x="543" y="149"/>
      <point x="543" y="224" type="curve" smooth="yes"/>
      <point x="543" y="271"/>
      <point x="546" y="322"/>
      <point x="549" y="373" type="curve"/>
      <point x="198" y="373" type="line"/>
      <point x="200" y="297"/>
      <point x="201" y="225"/>
      <point x="201" y="150" type="curve" smooth="yes"/>
      <point x="201" y="102"/>
      <point x="200" y="52"/>
    </contour>
    <contour>
      <point x="1291" y="-3" type="curve"/>
      <point x="1291" y="121"/>
      <point x="1293" y="246"/>
      <point x="1295" y="373" type="curve"/>
      <point x="1181" y="373"/>
      <point x="1063" y="375"/>
      <point x="948" y="378" type="curve"/>
      <point x="948" y="253"/>
      <point x="946" y="129"/>
      <point x="943" y="0" type="curve"/>
      <point x="1058" y="0"/>
      <point x="1175" y="-1"/>
    </contour>
  </outline>
</glyph>
<glyph name="perthousand" format="1">
  <advance width="2749"/>
  <unicode hex="2030"/>
  <outline>
    <contour>
      <point x="439" y="905" type="curve" smooth="yes"/>
      <point x="342" y="905"/>
      <point x="337" y="987"/>
      <point x="337" y="1098" type="curve" smooth="yes"/>
      <point x="337" y="1227"/>
      <point x="344" y="1305"/>
      <point x="439" y="1305" type="curve" smooth="yes"/>
      <point x="530" y="1305"/>
      <point x="543" y="1230"/>
      <point x="543" y="1112" type="curve"/>
      <point x="541" y="968"/>
      <point x="524" y="905"/>
    </contour>
    <contour>
      <point x="439" y="727" type="curve" smooth="yes"/>
      <point x="673" y="727"/>
      <point x="779" y="853"/>
      <point x="779" y="1131" type="curve" smooth="yes"/>
      <point x="779" y="1366"/>
      <point x="656" y="1480"/>
      <point x="439" y="1480" type="curve" smooth="yes"/>
      <point x="209" y="1480"/>
      <point x="96" y="1357"/>
      <point x="96" y="1078" type="curve" smooth="yes"/>
      <point x="96" y="839"/>
      <point x="223" y="727"/>
    </contour>
    <contour>
      <point x="438" y="0" type="line"/>
      <point x="696" y="0" type="line"/>
      <point x="1470" y="1476" type="line"/>
      <point x="1214" y="1476" type="line"/>
    </contour>
    <contour>
      <point x="1485" y="175" type="curve" smooth="yes"/>
      <point x="1388" y="175"/>
      <point x="1382" y="256"/>
      <point x="1382" y="368" type="curve" smooth="yes"/>
      <point x="1382" y="496"/>
      <point x="1391" y="574"/>
      <point x="1485" y="574" type="curve" smooth="yes"/>
      <point x="1577" y="574"/>
      <point x="1589" y="499"/>
      <point x="1589" y="381" type="curve" smooth="yes"/>
      <point x="1588" y="237"/>
      <point x="1570" y="175"/>
    </contour>
    <contour>
      <point x="1485" y="-4" type="curve" smooth="yes"/>
      <point x="1720" y="-4"/>
      <point x="1825" y="122"/>
      <point x="1825" y="400" type="curve" smooth="yes"/>
      <point x="1825" y="636"/>
      <point x="1702" y="750"/>
      <point x="1485" y="750" type="curve" smooth="yes"/>
      <point x="1255" y="750"/>
      <point x="1142" y="626"/>
      <point x="1142" y="348" type="curve" smooth="yes"/>
      <point x="1142" y="108"/>
      <point x="1269" y="-4"/>
    </contour>
    <contour>
      <point x="2306" y="175" type="curve" smooth="yes"/>
      <point x="2209" y="175"/>
      <point x="2203" y="257"/>
      <point x="2203" y="368" type="curve" smooth="yes"/>
      <point x="2203" y="496"/>
      <point x="2211" y="574"/>
      <point x="2306" y="574" type="curve" smooth="yes"/>
      <point x="2398" y="574"/>
      <point x="2409" y="499"/>
      <point x="2409" y="381" type="curve"/>
      <point x="2407" y="237"/>
      <point x="2391" y="175"/>
    </contour>
    <contour>
      <point x="2306" y="-4" type="curve" smooth="yes"/>
      <point x="2541" y="-4"/>
      <point x="2644" y="122"/>
      <point x="2644" y="400" type="curve" smooth="yes"/>
      <point x="2644" y="636"/>
      <point x="2523" y="750"/>
      <point x="2306" y="750" type="curve" smooth="yes"/>
      <point x="2076" y="750"/>
      <point x="1963" y="626"/>
      <point x="1963" y="348" type="curve" smooth="yes"/>
      <point x="1963" y="108"/>
      <point x="2090" y="-4"/>
    </contour>
  </outline>
</glyph>
<glyph name="guilsinglright" format="1">
  <advance width="796"/>
  <unicode hex="203A"/>
  <outline>
    <contour>
      <point x="157" y="172" type="line"/>
      <point x="157" y="172"/>
      <point x="589" y="491"/>
      <point x="699" y="581" type="curve"/>
      <point x="699" y="689" type="line"/>
      <point x="590" y="770"/>
      <point x="157" y="1084"/>
      <point x="157" y="1084" type="curve"/>
      <point x="157" y="885" type="line"/>
      <point x="157" y="885"/>
      <point x="536" y="638"/>
      <point x="536" y="638" type="curve"/>
      <point x="157" y="386" type="line"/>
    </contour>
  </outline>
</glyph>
<glyph name="fraction" format="1">
  <advance width="770"/>
  <unicode hex="2044"/>
  <outline>
    <contour>
      <point x="-83.0" y="0.0" type="line"/>
      <point x="94.0" y="0.0" type="line"/>
      <point x="840.0" y="1521.0" type="line"/>
      <point x="665.0" y="1521.0" type="line"/>
    </contour>
  </outline>
</glyph>
<glyph name="Euro" format="1">
  <advance width="1244"/>
  <unicode hex="20AC"/>
  <outline>
    <contour>
      <point x="793.0" y="-24.0" type="curve"/>
      <point x="903.0" y="-24.0"/>
      <point x="1086.0" y="1.0"/>
      <point x="1219.0" y="123.0" type="curve"/>
      <point x="1219.0" y="368.0" type="line"/>
      <point x="1134.0" y="368.0" type="line"/>
      <point x="1097.0" y="115.0"/>
      <point x="829.0" y="123.0"/>
      <point x="748.0" y="123.0" type="curve" smooth="yes"/>
      <point x="427.0" y="123.0"/>
      <point x="281.0" y="351.0"/>
      <point x="243.0" y="617.0" type="curve"/>
      <point x="960.0" y="617.0" type="line"/>
      <point x="989.0" y="730.0" type="line"/>
      <point x="232.0" y="730.0" type="line"/>
      <point x="229.0" y="750.0"/>
      <point x="228.0" y="776.0"/>
      <point x="229.0" y="800.0" type="curve" smooth="yes"/>
      <point x="230.0" y="837.0"/>
      <point x="234.0" y="871.0"/>
      <point x="234.0" y="871.0" type="curve"/>
      <point x="1005.0" y="871.0" type="line"/>
      <point x="1035.0" y="980.0" type="line"/>
      <point x="246.0" y="980.0" type="line"/>
      <point x="309.0" y="1383.0"/>
      <point x="575.0" y="1467.0"/>
      <point x="754.0" y="1467.0" type="curve" smooth="yes"/>
      <point x="955.0" y="1467.0"/>
      <point x="1089.0" y="1379.0"/>
      <point x="1153.0" y="1207.0" type="curve"/>
      <point x="1219.0" y="1207.0" type="line"/>
      <point x="1219.0" y="1450.0" type="line"/>
      <point x="1093.0" y="1564.0"/>
      <point x="934.0" y="1599.0"/>
      <point x="783.0" y="1599.0" type="curve" smooth="yes"/>
      <point x="427.0" y="1599.0"/>
      <point x="151.0" y="1420.0"/>
      <point x="66.0" y="980.0" type="curve"/>
      <point x="-87.0" y="980.0" type="line"/>
      <point x="-105.0" y="871.0" type="line"/>
      <point x="59.0" y="871.0" type="line"/>
      <point x="59.0" y="871.0"/>
      <point x="57.0" y="842.0"/>
      <point x="57.0" y="802.0" type="curve" smooth="yes"/>
      <point x="57.0" y="781.0"/>
      <point x="57.0" y="756.0"/>
      <point x="59.0" y="730.0" type="curve"/>
      <point x="-77.0" y="730.0" type="line"/>
      <point x="-107.0" y="617.0" type="line"/>
      <point x="65.0" y="617.0" type="line"/>
      <point x="150.0" y="185.0"/>
      <point x="387.0" y="-24.0"/>
    </contour>
  </outline>
</glyph>
<glyph name="trademark" format="1">
  <advance width="1868"/>
  <unicode hex="2122"/>
  <outline>
    <contour>
      <point x="823" y="820" type="line"/>
      <point x="942" y="820" type="line"/>
      <point x="942" y="1459" type="line"/>
      <point x="947" y="1459" type="line"/>
      <point x="1162" y="966" type="line"/>
      <point x="1257" y="966" type="line"/>
      <point x="1464" y="1454" type="line"/>
      <point x="1470" y="1454" type="line"/>
      <point x="1470" y="820" type="line"/>
      <point x="1594" y="820" type="line"/>
      <point x="1594" y="1575" type="line"/>
      <point x="1411" y="1575" type="line"/>
      <point x="1211" y="1102" type="line"/>
      <point x="1015" y="1575" type="line"/>
      <point x="823" y="1575" type="line"/>
    </contour>
    <contour>
      <point x="386" y="820" type="line"/>
      <point x="500" y="820" type="line"/>
      <point x="500" y="1482" type="line"/>
      <point x="706" y="1482" type="line"/>
      <point x="706" y="1575" type="line"/>
      <point x="181" y="1575" type="line"/>
      <point x="181" y="1482" type="line"/>
      <point x="386" y="1482" type="line"/>
    </contour>
  </outline>
</glyph>
<glyph name="partialdiff" format="1">
  <advance width="1169"/>
  <unicode hex="2202"/>
  <outline>
    <contour>
      <point x="479" y="-17" type="curve" smooth="yes"/>
      <point x="841" y="-17"/>
      <point x="1053" y="284"/>
      <point x="1101" y="755" type="curve"/>
      <point x="1110" y="827"/>
      <point x="1113" y="895"/>
      <point x="1110" y="962" type="curve" smooth="yes"/>
      <point x="1095" y="1336"/>
      <point x="928" y="1522"/>
      <point x="642" y="1539" type="curve" smooth="yes"/>
      <point x="498" y="1548"/>
      <point x="388" y="1511"/>
      <point x="304" y="1463" type="curve"/>
      <point x="281" y="1248" type="line"/>
      <point x="361" y="1297"/>
      <point x="461" y="1340"/>
      <point x="585" y="1317" type="curve"/>
      <point x="740" y="1292"/>
      <point x="825" y="1146"/>
      <point x="825" y="920" type="curve" smooth="yes"/>
      <point x="825" y="910"/>
      <point x="824" y="889"/>
      <point x="823" y="870" type="curve"/>
      <point x="819" y="870" type="line"/>
      <point x="771" y="948"/>
      <point x="680" y="1014"/>
      <point x="551" y="1014" type="curve" smooth="yes"/>
      <point x="270" y="1014"/>
      <point x="58" y="757"/>
      <point x="58" y="422" type="curve" smooth="yes"/>
      <point x="58" y="171"/>
      <point x="213" y="-17"/>
    </contour>
    <contour>
      <point x="511" y="201" type="curve" smooth="yes"/>
      <point x="405" y="201"/>
      <point x="347" y="287"/>
      <point x="347" y="428" type="curve" smooth="yes"/>
      <point x="347" y="622"/>
      <point x="461" y="812"/>
      <point x="608" y="812" type="curve" smooth="yes"/>
      <point x="704" y="812"/>
      <point x="767" y="743"/>
      <point x="792" y="651" type="curve"/>
      <point x="764" y="405"/>
      <point x="656" y="201"/>
    </contour>
  </outline>
</glyph>
<glyph name="product" format="1">
  <advance width="1566"/>
  <unicode hex="220F"/>
  <outline>
    <contour>
      <point x="215" y="-284" type="line"/>
      <point x="404" y="-284" type="line"/>
      <point x="404" y="1380" type="line"/>
      <point x="1173" y="1380" type="line"/>
      <point x="1173" y="-284" type="line"/>
      <point x="1362" y="-284" type="line"/>
      <point x="1362" y="1521" type="line"/>
      <point x="215" y="1521" type="line"/>
    </contour>
  </outline>
</glyph>
<glyph name="summation" format="1">
  <advance width="1254"/>
  <unicode hex="2211"/>
  <outline>
    <contour>
      <point x="82" y="0" type="line"/>
      <point x="1101" y="0" type="line"/>
      <point x="1101" y="130" type="line"/>
      <point x="274" y="130" type="line"/>
      <point x="274" y="130"/>
      <point x="824" y="812"/>
      <point x="824" y="812" type="curve"/>
      <point x="824" y="812"/>
      <point x="289" y="1456"/>
      <point x="289" y="1456" type="curve"/>
      <point x="1068" y="1456" type="line"/>
      <point x="1068" y="1575" type="line"/>
      <point x="105" y="1575" type="line"/>
      <point x="105" y="1465" type="line"/>
      <point x="654" y="811" type="line"/>
      <point x="82" y="104" type="line"/>
    </contour>
  </outline>
</glyph>
<glyph name="uni2215" format="1">
  <advance width="770"/>
  <unicode hex="2215"/>
  <outline>
    <contour>
      <point x="-83.0" y="0.0" type="line"/>
      <point x="94.0" y="0.0" type="line"/>
      <point x="840.0" y="1575.0" type="line"/>
      <point x="665.0" y="1575.0" type="line"/>
    </contour>
  </outline>
</glyph>
<glyph name="uni2219" format="1">
  <advance width="492"/>
  <unicode hex="2219"/>
  <outline>
    <contour>
      <point x="246" y="460" type="curve" smooth="yes"/>
      <point x="322" y="460"/>
      <point x="382" y="521"/>
      <point x="382" y="597" type="curve" smooth="yes"/>
      <point x="382" y="673"/>
      <point x="322" y="734"/>
      <point x="246" y="734" type="curve" smooth="yes"/>
      <point x="170" y="734"/>
      <point x="109" y="673"/>
      <point x="109" y="597" type="curve" smooth="yes"/>
      <point x="109" y="521"/>
      <point x="170" y="460"/>
    </contour>
  </outline>
</glyph>
<glyph name="integral" format="1">
  <advance width="1014"/>
  <unicode hex="222B"/>
  <outline>
    <contour>
      <point x="271" y="-435" type="curve" smooth="yes"/>
      <point x="491" y="-435"/>
      <point x="585" y="-302"/>
      <point x="594" y="-41" type="curve"/>
      <point x="594" y="108"/>
      <point x="594" y="1101"/>
      <point x="594" y="1134" type="curve" smooth="yes"/>
      <point x="594" y="1374"/>
      <point x="623" y="1478"/>
      <point x="755" y="1478" type="curve" smooth="yes"/>
      <point x="788" y="1478"/>
      <point x="860" y="1469"/>
      <point x="892" y="1455" type="curve"/>
      <point x="892" y="1596" type="line"/>
      <point x="857" y="1608"/>
      <point x="808" y="1616"/>
      <point x="750" y="1616" type="curve" smooth="yes"/>
      <point x="511" y="1616"/>
      <point x="392" y="1459"/>
      <point x="392" y="1174" type="curve" smooth="yes"/>
      <point x="392" y="1139"/>
      <point x="392" y="58"/>
      <point x="392" y="9" type="curve" smooth="yes"/>
      <point x="392" y="-240"/>
      <point x="334" y="-283"/>
      <point x="243" y="-283" type="curve" smooth="yes"/>
      <point x="210" y="-283"/>
      <point x="154" y="-274"/>
      <point x="121" y="-260" type="curve"/>
      <point x="121" y="-411" type="line"/>
      <point x="158" y="-424"/>
      <point x="210" y="-435"/>
    </contour>
  </outline>
</glyph>
<glyph name="approxequal" format="1">
  <advance width="1348"/>
  <unicode hex="2248"/>
  <outline>
    <contour>
      <point x="325" y="236" type="line"/>
      <point x="344" y="330"/>
      <point x="387" y="392"/>
      <point x="475" y="392" type="curve" smooth="yes"/>
      <point x="515" y="392"/>
      <point x="567" y="366"/>
      <point x="639" y="325" type="curve" smooth="yes"/>
      <point x="739" y="269"/>
      <point x="817" y="241"/>
      <point x="886" y="241" type="curve" smooth="yes"/>
      <point x="1056" y="241"/>
      <point x="1135" y="325"/>
      <point x="1159" y="504" type="curve"/>
      <point x="1023" y="528" type="line"/>
      <point x="1013" y="439"/>
      <point x="964" y="396"/>
      <point x="886" y="384" type="curve" smooth="yes"/>
      <point x="841" y="377"/>
      <point x="777" y="405"/>
      <point x="701" y="449" type="curve" smooth="yes"/>
      <point x="627" y="491"/>
      <point x="549" y="524"/>
      <point x="466" y="524" type="curve" smooth="yes"/>
      <point x="297" y="524"/>
      <point x="214" y="444"/>
      <point x="189" y="258" type="curve"/>
    </contour>
    <contour>
      <point x="325" y="647" type="line"/>
      <point x="344" y="739"/>
      <point x="388" y="799"/>
      <point x="475" y="799" type="curve" smooth="yes"/>
      <point x="516" y="799"/>
      <point x="569" y="775"/>
      <point x="639" y="735" type="curve" smooth="yes"/>
      <point x="738" y="678"/>
      <point x="816" y="650"/>
      <point x="887" y="650" type="curve" smooth="yes"/>
      <point x="1055" y="650"/>
      <point x="1135" y="734"/>
      <point x="1159" y="913" type="curve"/>
      <point x="1023" y="937" type="line"/>
      <point x="1011" y="847"/>
      <point x="962" y="794"/>
      <point x="878" y="792" type="curve" smooth="yes"/>
      <point x="834" y="790"/>
      <point x="774" y="814"/>
      <point x="701" y="857" type="curve" smooth="yes"/>
      <point x="628" y="900"/>
      <point x="549" y="932"/>
      <point x="467" y="932" type="curve" smooth="yes"/>
      <point x="297" y="932"/>
      <point x="214" y="854"/>
      <point x="189" y="670" type="curve"/>
    </contour>
  </outline>
</glyph>
<glyph name="notequal" format="1">
  <advance width="1348"/>
  <unicode hex="2260"/>
  <outline>
    <contour>
      <point x="450" y="41" type="line"/>
      <point x="594" y="318" type="line"/>
      <point x="1154" y="318" type="line"/>
      <point x="1144" y="431" type="line"/>
      <point x="651" y="431" type="line"/>
      <point x="807" y="734" type="line"/>
      <point x="1154" y="734" type="line"/>
      <point x="1154" y="848" type="line"/>
      <point x="856" y="848" type="line"/>
      <point x="1000" y="1121" type="line"/>
      <point x="870" y="1121" type="line"/>
      <point x="721" y="848" type="line"/>
      <point x="194" y="848" type="line"/>
      <point x="194" y="734" type="line"/>
      <point x="669" y="734" type="line"/>
      <point x="516" y="431" type="line"/>
      <point x="184" y="431" type="line"/>
      <point x="194" y="318" type="line"/>
      <point x="457" y="318" type="line"/>
      <point x="311" y="41" type="line"/>
    </contour>
  </outline>
</glyph>
<glyph name="greaterequal" format="1">
  <advance width="1289"/>
  <unicode hex="2265"/>
  <outline>
    <contour>
      <point x="202" y="234" type="line"/>
      <point x="1092" y="644" type="line"/>
      <point x="1092" y="802" type="line"/>
      <point x="202" y="1225" type="line"/>
      <point x="202" y="1020" type="line"/>
      <point x="878" y="721" type="line"/>
      <point x="202" y="437" type="line"/>
    </contour>
    <contour>
      <point x="186" y="1" type="line"/>
      <point x="1104" y="1" type="line"/>
      <point x="1104" y="178" type="line"/>
      <point x="186" y="178" type="line"/>
    </contour>
  </outline>
</glyph>
<glyph name="lozenge" format="1">
  <advance width="1203"/>
  <unicode hex="25CA"/>
  <outline>
    <contour>
      <point x="598" y="98" type="curve"/>
      <point x="275" y="717" type="line"/>
      <point x="277" y="717"/>
      <point x="602" y="1331"/>
      <point x="602" y="1332" type="curve"/>
      <point x="603" y="1331"/>
      <point x="927" y="713"/>
      <point x="927" y="713" type="curve"/>
      <point x="927" y="711"/>
      <point x="598" y="95"/>
    </contour>
    <contour>
      <point x="548" y="-32" type="line"/>
      <point x="645" y="-32" type="line"/>
      <point x="1057" y="715" type="line"/>
      <point x="659" y="1461" type="line"/>
      <point x="552" y="1461" type="line"/>
      <point x="143" y="714" type="line"/>
    </contour>
  </outline>
</glyph>
<glyph name="one.superior" format="1">
  <advance width="639"/>
  <outline>
    <contour>
      <point x="126.0" y="588.0" type="line"/>
      <point x="569.0" y="588.0" type="line"/>
      <point x="569.0" y="695.0" type="line"/>
      <point x="419.0" y="695.0" type="line"/>
      <point x="419.0" y="1462.0" type="line"/>
      <point x="260.0" y="1462.0" type="line"/>
      <point x="238.0" y="1417.0"/>
      <point x="198.0" y="1380.0"/>
      <point x="112.0" y="1359.0" type="curve"/>
      <point x="112.0" y="1270.0" type="line"/>
      <point x="276.0" y="1320.0" type="line"/>
      <point x="276.0" y="695.0" type="line"/>
      <point x="126.0" y="695.0" type="line"/>
    </contour>
  </outline>
</glyph>
